<svg xmlns="http://www.w3.org/2000/svg" viewBox="0 0 500 500"><path d="M441.7 104.54A147.55 147.55 0 00399 66.37C371.45 50 340.36 40.15 308.9 34.7c-99.55-17.23-154.12 1-195.28 30.63-27.26 19.67-35.83 61.49-43.88 91.9-4.52 17.07-8.55 34.32-14.17 51.07-8.73 26-28.56 47-35.17 73.81-7 28.29-6.45 58.09 3.24 85.71C42.79 422.38 75.33 454 150 464.5c40 5.64 72.15-10.89 105.34-30.78 20.46-12.26 41.67-23.31 65.15-28.31 24.8-5.27 50.31-6 75.18-10.9 55.63-10.95 73.48-63.6 80.71-113.47 8.75-60.38 3.27-126.37-34.68-176.5z" fill="#ff5858"/><path d="M441.7 104.54A147.55 147.55 0 00399 66.37C371.45 50 340.36 40.15 308.9 34.7c-99.55-17.23-154.12 1-195.28 30.63-27.26 19.67-35.83 61.49-43.88 91.9-4.52 17.07-8.55 34.32-14.17 51.07-8.73 26-28.56 47-35.17 73.81-7 28.29-6.45 58.09 3.24 85.71C42.79 422.38 75.33 454 150 464.5c40 5.64 72.15-10.89 105.34-30.78 20.46-12.26 41.67-23.31 65.15-28.31 24.8-5.27 50.31-6 75.18-10.9 55.63-10.95 73.48-63.6 80.71-113.47 8.75-60.38 3.27-126.37-34.68-176.5z" fill="#fff" opacity=".7"/><g opacity=".2" fill="none" stroke="#000" stroke-linejoin="round"><path d="M477.54 59.11H286.78l-6.77 16.23h197.53V59.11zm0 16.23H286.78l-6.77 16.24h197.53V75.34zm0 16.24H286.78l-6.77 16.23h197.53V91.58zm0 16.23H286.78l-6.77 16.24h197.53v-16.24zm0 16.24H286.78l-6.77 16.23h197.53v-16.23zm0 16.23H286.78l-6.77 16.24h197.53v-16.24zm0 16.24H286.78l-6.77 16.23h197.53v-16.23zm0 16.23H286.78l-6.77 16.24h197.53v-16.24zm0 16.24H286.78l-6.77 16.23h197.53v-16.23zm0 16.23H286.78l-6.77 16.24h197.53v-16.24zm0 16.24H286.78l-6.77 16.23h197.53v-16.23zm0 16.23H286.78l-6.77 16.24h197.53v-16.24zm0 16.24H286.78l-6.77 16.23h197.53v-16.23zm0 16.23H286.78l-6.77 16.24h197.53v-16.24z"/><path d="M477.54 286.4H286.78l-6.77 16.23h197.53V286.4zm0 16.23H286.78l-6.77 16.24h197.53v-16.24z"/><path d="M277.98 53.7h203.61v270.58H277.98z"/></g><g opacity=".2" fill="none" stroke="#000" stroke-linejoin="round"><path d="M37.29 421.87h68.42v36.11H37.29z"/><path d="M65.94 435.7h11.11v5.38H65.94z"/><path d="M33.78 374.94h75.43v92.39H33.78z"/><path d="M37.29 379.62h68.42v36.11H37.29z"/><path d="M65.94 393.45h11.11v5.38H65.94zM52.1 369.09H79v5.85H52.1z"/><path d="M62.04 350.97h4.68v18.13h-4.68zm-23.39-42.11h50.29v42.1H38.65z"/></g><g opacity=".2" fill="none" stroke="#000" stroke-linejoin="round"><path d="M388.9 423.59v-77.2a11.09 11.09 0 00-11.1-11.1H276.38v89.07"/><path d="M277.23 335.29H173.92a11.09 11.09 0 00-11.09 11.1v77.2M398.92 431v26H276.43v-33.41h115.11a7.37 7.37 0 017.38 7.41z"/><path d="M277.36 423.59H160.18a7.37 7.37 0 00-7.37 7.38v26h124.55"/><path d="M152.81 467.84v-10.91h246.32v10.91m-236.3-88.55a7.45 7.45 0 00-5.37-2.29h-22.31a7.43 7.43 0 00-7.44 7.43v82.88m293.72-.54v-82.34A7.43 7.43 0 00414 377h-22.31a7.19 7.19 0 00-2.79.55"/></g><path d="M438.46 52.06v241a11 11 0 01-11 11h-348a11 11 0 01-11-11v-241a10 10 0 0110-10h350a10 10 0 0110 10z" fill="#ff5858" stroke="#263238" stroke-miterlimit="10"/><path d="M438.46 52.06v20.8h-370v-20.8a10 10 0 0110-10h350a10 10 0 0110 10z" fill="#c9c9c9" stroke="#263238" stroke-miterlimit="10"/><path d="M306.92 68.83H109.54a3.36 3.36 0 01-3.35-3.36h0a3.36 3.36 0 013.35-3.36h197.38a3.36 3.36 0 013.36 3.36h0a3.36 3.36 0 01-3.36 3.36z" fill="#fff" stroke="#263238" stroke-miterlimit="10"/><path fill="none" stroke="#263238" stroke-miterlimit="10" d="M419.71 62.78h12.76m-12.76 2.69h12.76m-12.76 2.69h12.76"/><path d="M438.46 52.06v6h-370v-6a10 10 0 0110-10h350a10 10 0 0110 10z" fill="#263238" stroke="#263238" stroke-miterlimit="10"/><path d="M401.6 50.39a3.06 3.06 0 10-3.05 3 3 3 0 003.05-3zm12.64 0a3.05 3.05 0 10-3.05 3 3 3 0 003.05-3zm12.64 0a3.05 3.05 0 10-3.05 3 3 3 0 003.05-3zM89.41 83.13h329.11v205.96H89.41z" fill="#fff" stroke="#263238" stroke-miterlimit="10"/><path fill="none" stroke="#ff5858" stroke-miterlimit="10" stroke-width="5" d="M97.8 91.66h312.32v188.88H97.8z"/><path fill="none" stroke="#ff5858" stroke-miterlimit="10" d="M105.78 101.11h296.36v170H105.78z"/><path d="M204.4 121v1.75h-2.06v-1.86c0-1.75-.69-2.8-2.27-2.8s-2.27 1-2.27 2.8v10.26c0 1.74.72 2.8 2.27 2.8s2.27-1.06 2.27-2.8v-2.53h2.06V131c0 2.94-1.39 4.88-4.39 4.88s-4.35-1.94-4.35-4.88v-10c0-2.94 1.39-4.88 4.35-4.88s4.39 1.93 4.39 4.88zm8.87 3.9v1.94h-4.75v6.9h5.83v2h-8V116.3h8v2h-5.83v6.63zm7.4-8.6c3.05 0 4.32 1.56 4.32 4.44v1.58c0 2.14-.75 3.47-2.41 4 1.77.53 2.44 2 2.44 4.05v3a4.86 4.86 0 00.39 2.33h-2.19a5 5 0 01-.36-2.35v-3.05c0-2.2-1-2.89-2.83-2.89h-1.53v8.29h-2.16v-19.4zm-.56 9.15c1.72 0 2.75-.55 2.75-2.66v-1.86c0-1.74-.64-2.66-2.25-2.66h-2.11v7.18zm9.98 10.26v-17.44h-3.57v-2h9.31v2h-3.57v17.44zm9.4-19.41v19.41h-2.16V116.3zm8.85 9.04v2h-4.47v8.4h-2.16V116.3h7.71v2h-5.55v7.07zm4.96-9.04v19.41h-2.17V116.3zm10.78 4.7v1.75H262v-1.86c0-1.75-.69-2.8-2.27-2.8s-2.28 1-2.28 2.8v10.26c0 1.74.72 2.8 2.28 2.8s2.27-1.06 2.27-2.8v-2.53h2.05V131c0 2.94-1.38 4.88-4.38 4.88s-4.35-1.94-4.35-4.88v-10c0-2.94 1.38-4.88 4.35-4.88s4.41 1.93 4.41 4.88zm4.16 10.8l-.75 3.91h-2l3.71-19.41h3.13l3.72 19.41h-2.15l-.75-3.91zm.28-1.86h4.32l-2.19-11.2zm12.06 5.77v-17.44H277v-2h9.32v2h-3.58v17.44zM290 116.3v19.41h-2.16V116.3zm2 4.7c0-3 1.47-4.88 4.43-4.88s4.47 1.91 4.47 4.88v10c0 2.94-1.47 4.88-4.47 4.88S292 134 292 131zm2.13 10.15c0 1.77.75 2.8 2.3 2.8s2.3-1 2.3-2.8v-10.27c0-1.75-.72-2.8-2.3-2.8s-2.3 1-2.3 2.8zm10.76 4.56H303V116.3h2.74l4.49 14v-14h1.92v19.41h-2.25l-5-15.69z" fill="#263238"/><path fill="none" stroke="#263238" stroke-miterlimit="10" d="M181.25 146.53h148.87m51.98 18.99h10.3m-98.43 0h82.69m-130.56 0h43.15m-107.35 0h59.84m-98.65 0h32.64m-56.76 0h19.41m104.45 9.11H392.4m-265.63 0h111.35m-119.15 0h3.45m258.59 9.11h11.39m-72.68 0h55.85m-140.36 0h80.16m-92.49 0h7.62m-111.53 0h97.38m130.57 9.12h45.48m-207.96 0h158.13m-172.64 0h8.71m-59.67 0h46.25m198.75 9.11h28.43m-149.93 0h115.7m-162.13 0h40.99m-105.91 0h59.48m-71.63 0h8.53"/><path fill="#263238" stroke="#263238" stroke-linecap="round" stroke-linejoin="round" d="M130.02 242.11l9.38 24.37 4.54-11.02 11.03 4.49-10.78-22.88-14.17 5.04z"/><path fill="#263238" stroke="#263238" stroke-linecap="round" stroke-linejoin="round" d="M126.67 236.81l-11.35 23.51 11.14-4.21 4.27 11.11 9.32-23.51-13.38-6.9z"/><path d="M154.94 230.89c0-.89 1.93-1.91 1.81-2.77s-2.26-1.31-2.51-2.14 1.31-2.37.95-3.16-2.54-.61-3-1.35.59-2.64 0-3.3-2.61.13-3.27-.45-.16-2.69-.9-3.17-2.46.86-3.27.49-.91-2.54-1.76-2.79-2.11 1.52-3 1.4-1.59-2.18-2.48-2.18-1.62 2.06-2.48 2.18-2.16-1.64-3-1.4-1 2.43-1.77 2.79-2.52-1-3.26-.49-.24 2.6-.9 3.18-2.7-.22-3.27.44.49 2.56 0 3.3-2.65.55-3 1.35 1.2 2.31.95 3.16-2.38 1.27-2.51 2.14 1.81 1.88 1.81 2.77-1.93 1.9-1.81 2.76 2.26 1.31 2.51 2.15-1.32 2.36-.95 3.15 2.54.62 3 1.35-.6 2.64 0 3.3 2.6-.13 3.27.45.16 2.69.9 3.17 2.46-.86 3.26-.49.92 2.54 1.77 2.79 2.11-1.52 3-1.39 1.59 2.17 2.48 2.17 1.62-2.05 2.48-2.17 2.16 1.63 3 1.39 1-2.43 1.77-2.79 2.52 1 3.26.49.24-2.6.9-3.17 2.7.21 3.27-.45-.49-2.56 0-3.3 2.65-.55 3-1.35-1.2-2.31-.95-3.16 2.38-1.26 2.51-2.14-1.81-1.87-1.81-2.76z" fill="#ff5858" stroke="#263238" stroke-miterlimit="10"/><circle cx="137.53" cy="230.89" r="12.06" fill="#263238" stroke="#263238" stroke-linecap="round" stroke-linejoin="round"/><path fill="#ff5858" d="M137.53 222.6l1.86 5.73h6.02l-4.87 3.53 1.86 5.73-4.87-3.54-4.87 3.54 1.86-5.73-4.87-3.53h6.02l1.86-5.73z"/><path fill="none" stroke="#263238" stroke-miterlimit="10" d="M169.13 225.11h46m-46 10.99h46"/><circle cx="366.69" cy="234.1" r="17.1" fill="none" stroke="#ff5858" stroke-miterlimit="10"/><circle cx="366.69" cy="234.1" r="11.6" transform="rotate(-12.35 366.798 234.137)" fill="#ff5858"/><path d="M423 426.5s-3.5-6-5.25-9.25a69.23 69.23 0 01-3.25-7.25s4.25 2.5 5.5 3.5 6.5 7.25 6.5 7.25L428 419l-1.75-5.75 5.75 6.5 2.75-11.75 4.25 11.25 8-10 .5 10 9.75-7.75-3.5 12.25L450 429h-26.75z" fill="#ff5858" stroke="#263238" stroke-miterlimit="10"/><path d="M421.5 426.5s-2.25-1-6-5.5a75.42 75.42 0 01-6.5-9.25s8.5 4.75 11.5 7a52.68 52.68 0 017 7.25s-2.5-6.25-2.75-9.25-.5-9.5-.5-9.5 7.25 7.25 7.75 9.25 3.25 8.75 3.25 8.75a89.56 89.56 0 002-9.25c.5-3.75 4.5-9.75 4.5-9.75s.5 4.25.75 8.5-2.25 12.25-2.25 12.25 3.25-7.75 6.5-11.5a75.2 75.2 0 018.25-7.75s-2.5 7.75-3.5 11.25a35.86 35.86 0 01-3.75 7.75 105.64 105.64 0 017.5-8.5A59 59 0 01463 413s-2.75 5.25-4.75 8.25a90.77 90.77 0 01-6 7.5H421.5z" fill="#ff5858" stroke="#263238" stroke-miterlimit="10"/><path fill="#fff" stroke="#263238" stroke-miterlimit="10" d="M456.7 426l-1.73 15.25-2.97 26.08h-31.33l-2.97-26.08-1.73-15.25h40.73z"/><path fill="#ff5858" stroke="#263238" stroke-miterlimit="10" d="M454.97 441.25L452 467.33h-31.33l-2.97-26.08h37.27z"/><circle cx="423.5" cy="447" r="1.5" fill="#263238"/><circle cx="434.5" cy="447" r="1.5" fill="#263238"/><circle cx="427.75" cy="454.75" r="1.5" fill="#263238"/><circle cx="441" cy="454.75" r="1.5" fill="#263238"/><circle cx="449.75" cy="454.75" r="1.5" fill="#263238"/><circle cx="445.5" cy="447" r="1.5" fill="#263238"/><circle cx="423.5" cy="461" r="1.5" fill="#263238"/><circle cx="434.5" cy="461" r="1.5" fill="#263238"/><circle cx="445.5" cy="461" r="1.5" fill="#263238"/><ellipse cx="262.13" cy="298.31" rx="13.8" ry="9.03" transform="rotate(-89.86 262.155 298.315)" fill="#fff" stroke="#263238" stroke-linecap="round" stroke-linejoin="round"/><path d="M273.49 263.79s-4.87 2.79-9.51-.23-1.39-4.4-.46-6.26-1.39-2.32-1.86-4.87 1.16-4.64 2.09-4.87.7-2.79.7-5.34 3-4.87 4.4-4.87 2.32-1.85 3.25-4.17 2.79-4.41 6-3 4.87 1.39 6.5-.93 5.56-2.78 7-1.62 2.08 3.48 4.87 1.16 6.26-1.85 7.88-.23 1.39 3.48 4 2.55 6.72.46 7.65 3.25 6 5.8 7.89 5.1 5.1 0 3.47 3.48.24 5.8 1.63 5.8 4.41.93 2.78 3.94-2.78 5.34-.93 6.26 4.87 1.16 2.56 5.11-4.18 3.71-3.48 6 2.08 3 0 4.64-4.64 2.32-4.64 3.71 2.78 2.08-.47 3.24a26.43 26.43 0 01-5.8 1.4s-4.63-12.53-17.86-16.7-20.87-3.72-23.89-2.09-3.77-.46-3.77-.46z" fill="#263238" stroke="#263238" stroke-linecap="round" stroke-linejoin="round"/><path d="M278.16 348.83l-17 7.84s-8.79 48.66-8.16 62.16 8.16 47.09 8.16 47.09H302s-6.28-41.13-3.14-55.88 10.68-55.25 10.68-55.25-12.56-3.45-16.33-4.08-15.05-1.88-15.05-1.88z" fill="#fff" stroke="#263238" stroke-miterlimit="10"/><path d="M258.66 371.56l47 4.06c-.38 2-.76 4-1.15 6l-46.8-4c.29-2.12.64-4.15.95-6.06zM298.88 410c.36-1.7.78-3.74 1.24-6l-45.66-3.94c-.26 2.1-.49 4.13-.7 6.06l45.12 3.91zm4-20.22l-46.49-4c-.3 2-.6 4-.88 6.06l46.19 4c.43-1.94.82-3.96 1.22-6.02zm-49.85 25.24c-.06 1.44-.07 2.71 0 3.77 0 .73.09 1.52.16 2.35L298 424v-6.12zm8.42-58.52l-.28.13s-.4 2.24-1 5.89l47.16 4.08c.42-2.27.81-4.31 1.13-6zm38 89.42l-42.45-.45c.4 2.12.81 4.17 1.2 6.12l42 .48c-.2-1.92-.46-3.98-.68-6.07zm-44.27-10.08l43.57 2.56q-.26-3.07-.45-6.15l-44.11-2.59c.36 2.03.7 4.11 1.06 6.22z" fill="#263238"/><path d="M275.65 340s-3.45 13.18-3.76 20.09 6.9 12.55 17.26 11.61 12.24-12.24 12.24-15.07S302 330 302 330a98.6 98.6 0 01-11 8.16c-5.93 3.76-15.35 1.84-15.35 1.84z" fill="#b5b5b5" stroke="#263238" stroke-miterlimit="10"/><path d="M285.07 351.34c9.81-4.7 14.7-13.93 16.91-19.79v-1.56a98.6 98.6 0 01-11 8.16c-6 3.77-15.38 1.89-15.38 1.89s-2.15 8.24-3.21 15.1a40 40 0 0012.68-3.8z" fill="#263238" stroke="#263238" stroke-miterlimit="10"/><path d="M318.69 289.64s-.4-13.92-5.57-21.88-16.07-12.83-28.24-10.76c-15.1 2.6-21.88 13.92-24.27 23.47s.4 23.47.4 33 11.14 26.65 14.32 29.44 8.09 3.71 13.7.87c5.15-2.62 13.62-11.53 18.79-16.7s8.25-20.55 9.05-24.13 1.82-13.31 1.82-13.31z" fill="#b5b5b5" stroke="#263238" stroke-linecap="round" stroke-linejoin="round"/><path d="M276.51 316.68s-.47 3 6.49 2.55m-8.58 5.33s8.12 5.57 16.24.24" fill="none" stroke="#263238" stroke-linecap="round" stroke-linejoin="round"/><path d="M290.66 306s2.08-3.48 8.12-.47" fill="none" stroke="#263238" stroke-linecap="round" stroke-linejoin="round" stroke-width="2"/><path d="M274.42 303.92c0 1.67-.78 3-1.74 3s-1.74-1.35-1.74-3 .78-3 1.74-3 1.74 1.34 1.74 3z" fill="#263238"/><path d="M267 294.41s2.09-4.64 9-2.32m11.64 1.91s6.5-3.48 13.69 1.85" fill="none" stroke="#263238" stroke-linecap="round" stroke-linejoin="round"/><path d="M284.88 257c-15.1 2.6-21.88 13.92-24.27 23.47a34 34 0 00-.88 6.46c.78-2.43 4.83-13.09 16.31-16 13-3.24 24.36.93 28.3 6.5s3 12.76 4.41 16.24c.88 2.2 5.3 5.52 8.43 7.66.72-4.27 1.51-11.74 1.51-11.74s-.4-13.92-5.57-21.88-16.07-12.78-28.24-10.71z" fill="#263238" stroke="#263238" stroke-linecap="round" stroke-linejoin="round"/><path d="M314.78 292.09s1.16-12.29-2.32-20.41-7.65-11.6-7.65-11.6 9.74 5.11 13.22 10 3.94 16.7 3 24.82l-7.19-1.16z" fill="#ff5858" stroke="#263238" stroke-miterlimit="10"/><path d="M324.13 304.15c-1.4 7.49-6.51 12.82-11.42 11.91s-7.74-7.74-6.34-15.23 6.51-12.82 11.41-11.91 7.75 7.74 6.35 15.23z" fill="#fff" stroke="#263238" stroke-linecap="round" stroke-linejoin="round"/><ellipse cx="316.52" cy="303.87" rx="10.47" ry="6.85" transform="rotate(-79.42 316.505 303.868)" fill="#ff5858" stroke="#263238" stroke-miterlimit="10"/><path d="M266.55 435.32c2.34 16.6 5.22 31.49 5.22 31.49h-17.15s-4.39-22.61-9.73-35.16c-3-7.14-3.73-10-3.78-11.17-2.33 5.55-16.85 39.84-19.45 41-2.83 1.25-13.19-1-17-2.2s-4.07-6.59-3.44-8.79 27-65.93 29.5-70a55 55 0 005.34-13.19c.31-1.88-.32-6.28 2.51-7.84 1.71-.95 13.73-3.73 23-5.79 6.06-1.35 10.93-2.38 10.93-2.38s-7.5 27.93-8.78 47.71c-.55 8.77 1 23.09 2.83 36.31.01 0 .01 0 0 .01z" fill="#ff5858" stroke="#263238" stroke-miterlimit="10"/><path d="M266.55 435.31c-2.16-3.55-10.92-18.79-12.09-34.66-1.05-14.24 4.63-37.61 7.13-47 6.06-1.35 10.93-2.38 10.93-2.38s-7.52 27.95-8.8 47.73c-.55 8.77.96 23.09 2.83 36.31z" fill="#ff5858" stroke="#263238" stroke-miterlimit="10"/><path d="M243.53 387.58c.78-3.39 1.36-5.22 1.36-5.22m-3.45 37.36s-1.89-6.6-.32-18.52c.42-3.15.87-5.95 1.32-8.36" fill="none" stroke="#263238" stroke-miterlimit="10"/><path d="M379.56 422.47c-7.22-.32-43.32-22.81-43.32-22.81s-11.31 22.16-11.62 26.66 8.79 40.49 8.79 40.49H294.8s-1.17-12.63-1.41-26.48c-.11-6.39 0-13 .47-18.83 1.57-18.31 7.84-70 7.84-70l6.29.64s1.78.6 4.57 1.57c7.43 2.58 22 7.86 28.39 11.6 8.78 5.14 21 13.5 27 17.36s20.09 12.53 22.91 24.1-4.08 16.02-11.3 15.7z" fill="#ff5858" stroke="#263238" stroke-miterlimit="10"/><path d="M312.56 353.67c-.85 12.86-3.35 43.49-8.74 58.31-5.16 14.17-8.87 24.16-10.43 28.35-.11-6.39 0-13 .47-18.83 1.57-18.31 7.84-70 7.84-70l6.29.64s1.78.56 4.57 1.53zm23.68 45.98l-14.44-4.49m-6.1-9.73c.42 4.75 1.73 10 5.16 12.94m-5.03-22.81a49.63 49.63 0 00-.31 5.42M314 392.26s3.45 6.43 7.53 8.68" fill="none" stroke="#263238" stroke-miterlimit="10"/><path d="M335.63 346.24a31 31 0 01-.9-7.2c0-3.87.9-6.05-.51-5.92s-3.87 1.93-4.64 5 .9 5.92 1.16 6.95A8.81 8.81 0 01331 347s-11.2.38-13.26.38-4.12 1.16-4.12 3.09 2.19 3 2.19 3l1 .52s-1.29 2.44-.39 3.73a8.38 8.38 0 001.81 1.93 2.78 2.78 0 00-.26 2.7 4.84 4.84 0 001.67 2.19s-1.67 1.55.52 3.61 6.95 2.19 10.29 2.19 6.18.12 6.18.12l1.42.13 11.84 17.64 11.2-12.49s-16.48-16-18.67-18.79-6.79-10.71-6.79-10.71z" fill="#b5b5b5" stroke="#263238" stroke-miterlimit="10"/><path d="M360.72 374.25l-15.38 14.44S359.47 407.53 367 417s21.35 11 27.31 6.27 6.6-15.38 1.26-22-34.85-27.02-34.85-27.02z" fill="#ff5858" stroke="#263238" stroke-miterlimit="10"/><path d="M257.8 450.1s22.58 3.9 24.69 3.9 24.39-5.72 25.89-4.52 11.44 9.64 13.85 12.05a20.69 20.69 0 013.61 4.82h-20.77l-6.32-1.51s-5.36 2.48-8.37 2.48-13.09-.58-13.09-.58l-17.74-.29s-5.97-10.03-1.75-16.35z" fill="#b5b5b5" stroke="#263238" stroke-miterlimit="10"/><path d="M311.39 466.36s-5.12-5.72-7.22-7.23A15.31 15.31 0 00300 457m18.32 9.66s-9.94-10.84-11.14-11.75a18.8 18.8 0 00-4.22-1.8" fill="none" stroke="#263238" stroke-miterlimit="10"/><path d="M208.42 439.86s-9 7.23-10.54 12 .6 10.54 5.42 12.35 58.58 2.79 58.58 2.79c-.88.41-4.82-3.28-2.58-8.21 1.52-3.34 5.72-8.13 5.72-8.13l-44.86-11.44" fill="#ff5858" stroke="#263238" stroke-miterlimit="10"/><g stroke="#263238" stroke-miterlimit="10"><path fill="#263238" d="M99.76 464.96h184.5v2.37H99.76z"/><path fill="#fff" d="M217.33 467.33H102.26l-10.64-80.02h115.07l10.64 80.02z"/><path fill="#fff" d="M214.99 467.33H99.93l-10.64-80.02h115.06l10.64 80.02z"/><path d="M108.82 467.33h105.82l-8-60.4c-14.16 9-31.41 20.65-50.21 35a161.16 161.16 0 01-47.61 25.4z" fill="#263238"/><ellipse cx="148.48" cy="426.57" rx="7.56" ry="6.98" fill="#fff"/></g><path fill="none" stroke="#263238" stroke-miterlimit="10" d="M11.17 467.33H473"/></svg>