<svg xmlns="http://www.w3.org/2000/svg" viewBox="0 0 500 500"><defs><clipPath id="a"><path d="M318.47 308.32s-7.1-4.44-39.52-15.1-53.3-14.22-85.27-13.32-75.06 12.88-83.05 16-11.55 4-9.77 6.21 11.54 10.22 10.21 13.77S88 339 86.64 342.07s4.45 13.77 5.33 16.44 5.78 3.55 9.77 4 288.24 0 288.24 0 4-4.88 3.11-11.1-1.84-14.42-5.85-19.67c-3.24-4.26-6.59-8.75-15-9.64-5.33-.57-52.43-13.33-53.77-13.78z" fill="#ff5858" stroke="#263238" stroke-miterlimit="10"/></clipPath><clipPath id="b"><path d="M318.47 308.32s-7.1-4.44-39.52-15.1-53.3-14.22-85.27-13.32-75.06 12.88-83.05 16-11.55 4-9.77 6.21 11.54 10.22 10.21 13.77S88 339 86.64 342.07s4.45 13.77 5.33 16.44 5.78 3.55 9.77 4 288.24 0 288.24 0 4-4.88 3.11-11.1-1.84-14.42-5.85-19.67c-3.24-4.26-6.59-8.75-15-9.64-5.33-.57-52.43-13.33-53.77-13.78z" fill="#ff5858"/></clipPath><clipPath id="c"><path d="M296.27 308.32s-7.11-4.44-39.53-15.1-53.29-14.22-85.27-13.32-75.06 12.88-83 16-11.55 4-9.77 6.21 11.55 10.22 10.21 13.77S65.77 339 64.44 342.07s4.44 13.77 5.33 16.44 5.77 3.55 9.77 4 288.23 0 288.23 0 4-4.88 3.11-11.1S369 337 365 331.73c-3.24-4.26-6.6-8.75-15-9.64-5.29-.56-52.4-13.32-53.73-13.77z" fill="#ff5858" stroke="#263238" stroke-miterlimit="10"/></clipPath><clipPath id="d"><path d="M128.31 291.94l17.77 18.77H276.7v-4.26s-26.77-10.51-55-16-35.28-5-48-4.76-45.39 6.25-45.39 6.25z" fill="#8f8f8f" stroke="#263238" stroke-miterlimit="10" stroke-width="4"/></clipPath></defs><path d="M408.91 205.78s-31.65-59.9-97.74-83.12-96.63-2.94-130.49 19C154 158.93 133.16 184 111.33 206.09c-20 20.28-49.3 36-58.55 64.07C41.09 305.66 67.59 344 99 364.65c43.88 28.78 86.42 11.17 132.24 4.41h.26a138.75 138.75 0 0120.1-1.6c53.22.11 91.41 37.69 130.18-1s44.96-114.06 27.13-160.68z" fill="#ff5858"/><path d="M408.91 205.78s-31.65-59.9-97.74-83.12-96.63-2.94-130.49 19C154 158.93 133.16 184 111.33 206.09c-20 20.28-49.3 36-58.55 64.07C41.09 305.66 67.59 344 99 364.65c43.88 28.78 86.42 11.17 132.24 4.41h.26a138.75 138.75 0 0120.1-1.6c53.22.11 91.41 37.69 130.18-1s44.96-114.06 27.13-160.68z" fill="#fff" opacity=".75"/><path d="M387.48 195c-3.19-1.74-4.64-.29-5.81-1.74s3.2-5.23-5.51-9c0 0-.58-8.13-12.49-8.42s-8.67 8.09-11.9 10.16-4.07-1.16-7.26.87-1.75 6.1-4.36 6.68-6.1-2.61-9.29-.58-3.2 3.77-4.65 3.77-4.35-1.16-6.1 0-3.77 2.62-3.77 2.62h73.46s.88-2.66-2.32-4.36zM206.6 220c-1.45-.79-2.11-.13-2.63-.79s1.45-2.37-2.51-4.08c0 0-.26-3.7-5.67-3.83s-3.95 3.69-5.4 4.62-1.84-.53-3.29.39-.8 2.77-2 3-2.77-1.18-4.22-.26-1.45 1.71-2.11 1.71-2-.52-2.77 0-1.71 1.19-1.71 1.19h33.35a1.71 1.71 0 00-1.04-1.95zm27.02-84c-2-1.08-2.9-.18-3.63-1.08s2-3.27-3.44-5.62c0 0-.36-5.08-7.79-5.26s-5.44 5.08-7.44 6.34-2.53-.72-4.53.55-1.08 3.8-2.72 4.17-3.8-1.63-5.79-.37-2 2.36-2.9 2.36-2.72-.73-3.81 0-2.36 1.63-2.36 1.63h45.86a2.35 2.35 0 00-1.45-2.72z" fill="#fff" stroke="#263238" stroke-miterlimit="10"/><g fill="none" stroke="#263238" stroke-miterlimit="10"><path d="M96.6 235.7h8.16v8.22H96.6zm-8.81 4.97h3.31v3.24h-3.31z"/><path d="M422.86 287.6h-30.92v-65.22h2.07v-6.76h-72.43v6.76h2.51v96.99h-19V111.28h-65.15v157.37h-23.81v-17.42h6.23v-7.37h-52.08V138.28h3.37v-5.52h-63.23v5.52h4.54v105.76H64.99v75.63H38.75M237.04 109h70.64v2.26h-70.64z"/><path d="M120.61 144.42h7.96v8.52h-7.96zm11.67 0h7.96v8.52h-7.96zm11.67 0h7.96v8.52h-7.96zm11.68 0h7.96v8.52h-7.96zm-35.02 13.51h7.96v8.52h-7.96zm11.67 0h7.96v8.52h-7.96zm11.67 0h7.96v8.52h-7.96zm11.68 0h7.96v8.52h-7.96zm-35.02 13.5h7.96v8.52h-7.96zm11.67 0h7.96v8.52h-7.96zm11.67 0h7.96v8.52h-7.96zm11.68 0h7.96v8.52h-7.96zm-35.02 13.5h7.96v8.52h-7.96zm11.67 0h7.96v8.52h-7.96zm11.67 0h7.96v8.52h-7.96zm11.68 0h7.96v8.52h-7.96zm-35.02 13.51h7.96v8.52h-7.96zm11.67 0h7.96v8.52h-7.96zm11.67 0h7.96v8.52h-7.96zm11.68 0h7.96v8.52h-7.96zm-35.02 13.5h7.96v8.52h-7.96zm11.67 0h7.96v8.52h-7.96zm11.67 0h7.96v8.52h-7.96zm11.68 0h7.96v8.52h-7.96zm-35.02 13.51h7.96v8.52h-7.96zm11.67 0h7.96v8.52h-7.96zm11.67 0h7.96v8.52h-7.96zm11.68 0h7.96v8.52h-7.96zm-35.02 13.5h7.96v8.52h-7.96zm11.67 0h7.96v8.52h-7.96zm11.67 0h7.96v8.52h-7.96zm11.68 0h7.96v8.52h-7.96zm-35.02 12.35h7.96v8.52h-7.96zm11.67 0h7.96v8.52h-7.96zm11.67 0h7.96v8.52h-7.96zm11.68 0h7.96v8.52h-7.96zm-35.02 13.51h7.96v8.52h-7.96zm11.67 0h7.96v8.52h-7.96zm11.67 0h7.96v8.52h-7.96zm11.68 0h7.96v8.52h-7.96zm-35.02 13.5h7.96v8.52h-7.96zm11.67 0h7.96v8.52h-7.96zm11.67 0h7.96v8.52h-7.96zm11.68 0h7.96v8.52h-7.96zm-35.02 13.5h7.96v8.52h-7.96zm11.67 0h7.96v8.52h-7.96zm11.67 0h7.96v8.52h-7.96zm11.68 0h7.96v8.52h-7.96zm-35.02 13.51h7.96v8.52h-7.96zm11.67 0h7.96v8.52h-7.96zm11.67 0h7.96v8.52h-7.96zm11.68 0h7.96v8.52h-7.96zm-35.02 13.5h7.96v8.52h-7.96zm11.67 0h7.96v8.52h-7.96zm11.67 0h7.96v8.52h-7.96zm11.68 0h7.96v8.52h-7.96zm-35.02 13.51h7.96v8.52h-7.96zm11.67 0h7.96v8.52h-7.96zm11.67 0h7.96v8.52h-7.96zm11.68 0h7.96v8.52h-7.96zm-35.02 13.5h7.96v8.52h-7.96zm11.67 0h7.96v8.52h-7.96zm11.67 0h7.96v8.52h-7.96zm11.68 0h7.96v8.52h-7.96zm10.57-94.53h7.96v8.52h-7.96zm11.67 0h7.96v8.52h-7.96zm11.67 0h7.96v8.52h-7.96zm11.67 0h7.96v8.52h-7.96zm-35.01 13.51h7.96v8.52h-7.96zm11.67 0h7.96v8.52h-7.96zm11.67 0h7.96v8.52h-7.96zm11.67 0h7.96v8.52h-7.96zm-35.01 13.5h7.96v8.52h-7.96zm11.67 0h7.96v8.52h-7.96zm11.67 0h7.96v8.52h-7.96zm11.67 0h7.96v8.52h-7.96zm-35.01 13.5h7.96v8.52h-7.96zm11.67 0h7.96v8.52h-7.96zm11.67 0h7.96v8.52h-7.96zm11.67 0h7.96v8.52h-7.96zm-35.01 13.51h7.96v8.52h-7.96zm11.67 0h7.96v8.52h-7.96zm11.67 0h7.96v8.52h-7.96zm11.67 0h7.96v8.52h-7.96zm-35.01 13.5h7.96v8.52h-7.96zm11.67 0h7.96v8.52h-7.96zm11.67 0h7.96v8.52h-7.96zm11.67 0h7.96v8.52h-7.96zm-35.01 13.51h7.96v8.52h-7.96zm11.67 0h7.96v8.52h-7.96zm11.67 0h7.96v8.52h-7.96zm11.67 0h7.96v8.52h-7.96zm-35.01 13.5h7.96v8.52h-7.96zm11.67 0h7.96v8.52h-7.96zm11.67 0h7.96v8.52h-7.96zm11.67 0h7.96v8.52h-7.96zM74.39 251.3h7.96v8.52h-7.96zm11.67 0h7.96v8.52h-7.96zm11.67 0h7.96v8.52h-7.96zm11.67 0h7.96v8.52h-7.96zm-35.01 13.51h7.96v8.52h-7.96zm11.67 0h7.96v8.52h-7.96zm11.67 0h7.96v8.52h-7.96zm11.67 0h7.96v8.52h-7.96zm-35.01 13.5h7.96v8.52h-7.96zm11.67 0h7.96v8.52h-7.96zm11.67 0h7.96v8.52h-7.96zm11.67 0h7.96v8.52h-7.96zm-35.01 13.5h7.96v8.52h-7.96zm11.67 0h7.96v8.52h-7.96zm11.67 0h7.96v8.52h-7.96zm11.67 0h7.96v8.52h-7.96zm-35.01 13.51h7.96v8.52h-7.96zm11.67 0h7.96v8.52h-7.96zm11.67 0h7.96v8.52h-7.96zm11.67 0h7.96v8.52h-7.96zm-35.01 13.5h7.96v8.52h-7.96zm11.67 0h7.96v8.52h-7.96zm11.67 0h7.96v8.52h-7.96zm11.67 0h7.96v8.52h-7.96zm-35.01 13.51h7.96v8.52h-7.96zm11.67 0h7.96v8.52h-7.96zm11.67 0h7.96v8.52h-7.96zm11.67 0h7.96v8.52h-7.96zm-35.01 13.5h7.96v8.52h-7.96zm11.67 0h7.96v8.52h-7.96zm11.67 0h7.96v8.52h-7.96zm11.67 0h7.96v8.52h-7.96zm225.68-121h7.96v8.52h-7.96zm11.67 0h7.96v8.52h-7.96zm11.67 0h7.96v8.52h-7.96zm11.67 0h7.96v8.52h-7.96zm-35.01 13.51h7.96v8.52h-7.96zm11.67 0h7.96v8.52h-7.96zm11.67 0h7.96v8.52h-7.96zm11.67 0h7.96v8.52h-7.96zm-35.01 13.5h7.96v8.52h-7.96zm11.67 0h7.96v8.52h-7.96zm11.67 0h7.96v8.52h-7.96zm11.67 0h7.96v8.52h-7.96zm-35.01 13.5h7.96v8.52h-7.96zm11.67 0h7.96v8.52h-7.96zm11.67 0h7.96v8.52h-7.96zm11.67 0h7.96v8.52h-7.96zm-35.01 13.51h7.96v8.52h-7.96zm11.67 0h7.96v8.52h-7.96zm11.67 0h7.96v8.52h-7.96zm11.67 0h7.96v8.52h-7.96zm-35.01 13.5h7.96v8.52h-7.96zm11.67 0h7.96v8.52h-7.96zm11.67 0h7.96v8.52h-7.96zm11.67 0h7.96v8.52h-7.96zm-35.01 13.51h7.96v8.52h-7.96zm11.67 0h7.96v8.52h-7.96zm11.67 0h7.96v8.52h-7.96zm11.67 0h7.96v8.52h-7.96zm-35.01 13.5h7.96v8.52h-7.96zm11.67 0h7.96v8.52h-7.96zm11.67 0h7.96v8.52h-7.96zm11.67 0h7.96v8.52h-7.96zM246.08 116.19v246.75m7.89-246.75v246.75m7.89-246.75v246.75m7.89-246.75v246.75m7.9-246.75v246.75m7.89-246.75v246.75m7.89-246.75v246.75m7.89-246.75v246.75m-221.59-4.3h141.5v7.98H79.73zm228.34 0h127.06v7.98H308.07z"/></g><path d="M296.2 358.33s13.87 1.37 20.9 10c0 0 7.43-10 20.77-9.76a27 27 0 10-41.67-.19z" fill="#ff5858"/><path d="M296.2 358.33s13.87 1.37 20.9 10c0 0 7.43-10 20.77-9.76a27 27 0 10-41.67-.19z" fill="#fff" opacity=".5"/><path fill="#263238" d="M316.64 316.28l-.46 69.53h2.34l-1.88-69.53z"/><path d="M317.35 365.68s4.68-8.43 13.11-11c0 0-8.9 2.1-13.35 9.36zm0-23.88s4.68-8.43 13.11-11c0 0-8.9 2.1-13.35 9.36zm0 11.94s4.68-8.43 13.11-11c0 0-8.9 2.1-13.35 9.36zm-.7-5.85s-4.52-8.43-12.65-11c0 0 8.59 2.11 12.88 9.37zm0 11.7s-4.52-8.43-12.65-11c0 0 8.59 2.11 12.88 9.36z" fill="#263238"/><path d="M361.53 353.06s16.53 1.63 24.91 11.88c0 0 8.85-11.87 24.75-11.63a32.13 32.13 0 10-49.66-.22z" fill="#ff5858"/><path d="M361.53 353.06s16.53 1.63 24.91 11.88c0 0 8.85-11.87 24.75-11.63a32.13 32.13 0 10-49.66-.22z" fill="#fff" opacity=".5"/><path fill="#263238" d="M385.89 302.95l-.56 82.86h2.8l-2.24-82.86z"/><path d="M386.73 361.82s5.58-10.05 15.62-13.12c0 0-10.6 2.52-15.9 11.16zm0-28.46s5.58-10.05 15.62-13.11c0 0-10.6 2.51-15.9 11.16zm0 14.23s5.58-10 15.62-13.12c0 0-10.6 2.52-15.9 11.17zm-.83-6.98s-5.38-10-15.07-13.11c0 0 10.23 2.51 15.34 11.16zm0 13.95s-5.38-10-15.07-13.11c0 0 10.23 2.51 15.34 11.16z" fill="#263238"/><path d="M428.07 362.63s11.7 1.16 17.63 8.41a22.66 22.66 0 0117.52-8.23 22.75 22.75 0 10-35.16-.16z" fill="#ff5858"/><path d="M428.07 362.63s11.7 1.16 17.63 8.41a22.66 22.66 0 0117.52-8.23 22.75 22.75 0 10-35.16-.16z" fill="#fff" opacity=".5"/><path fill="#263238" d="M445.31 327.16l-.39 58.65h1.97l-1.58-58.65z"/><path d="M445.91 368.83s3.94-7.11 11-9.28c0 0-7.5 1.77-11.25 7.9zm0-20.15s3.94-7.11 11-9.28c0 0-7.5 1.78-11.25 7.9zm0 10.08s3.94-7.11 11-9.29c0 0-7.5 1.78-11.25 7.9zm-.59-4.94s-3.81-7.11-10.67-9.28c0 0 7.24 1.77 10.86 7.9zm0 9.87s-3.81-7.11-10.67-9.28c0 0 7.24 1.78 10.86 7.9z" fill="#263238"/><path d="M54.67 358.33s13.87 1.37 20.9 10c0 0 7.43-10 20.77-9.76a27 27 0 10-41.67-.19z" fill="#ff5858"/><path d="M54.67 358.33s13.87 1.37 20.9 10c0 0 7.43-10 20.77-9.76a27 27 0 10-41.67-.19z" fill="#fff" opacity=".5"/><path fill="#263238" d="M75.11 316.28l-.47 69.53h2.34l-1.87-69.53z"/><path d="M75.81 365.68s4.69-8.43 13.11-11c0 0-8.89 2.1-13.34 9.36zm0-23.88s4.69-8.43 13.11-11c0 0-8.89 2.1-13.34 9.36zm0 11.94s4.69-8.43 13.11-11c0 0-8.89 2.1-13.34 9.36zm-.69-5.85s-4.52-8.43-12.65-11c0 0 8.58 2.11 12.88 9.37zm0 11.7s-4.52-8.43-12.65-11c0 0 8.58 2.11 12.88 9.36z" fill="#263238"/><path d="M120 353.06s16.53 1.63 24.91 11.88c0 0 8.85-11.87 24.75-11.63a32.13 32.13 0 10-49.67-.22z" fill="#ff5858"/><path d="M120 353.06s16.53 1.63 24.91 11.88c0 0 8.85-11.87 24.75-11.63a32.13 32.13 0 10-49.67-.22z" fill="#fff" opacity=".5"/><path fill="#263238" d="M144.36 302.95l-.56 82.86h2.79l-2.23-82.86z"/><path d="M145.2 361.82s5.58-10.05 15.62-13.12c0 0-10.6 2.52-15.9 11.16zm0-28.46s5.58-10.05 15.62-13.11c0 0-10.6 2.51-15.9 11.16zm0 14.23s5.58-10 15.62-13.12c0 0-10.6 2.52-15.9 11.17zm-.83-6.98s-5.38-10-15.08-13.11c0 0 10.23 2.51 15.35 11.16zm0 13.95s-5.38-10-15.08-13.11c0 0 10.23 2.51 15.35 11.16z" fill="#263238"/><path d="M186.54 362.63s11.7 1.16 17.63 8.41a22.64 22.64 0 0117.52-8.23 22.75 22.75 0 10-35.16-.16z" fill="#ff5858"/><path d="M186.54 362.63s11.7 1.16 17.63 8.41a22.64 22.64 0 0117.52-8.23 22.75 22.75 0 10-35.16-.16z" fill="#fff" opacity=".5"/><path fill="#263238" d="M203.78 327.16l-.4 58.65h1.98l-1.58-58.65z"/><path d="M204.37 368.83s3.95-7.11 11.06-9.28c0 0-7.5 1.77-11.25 7.9zm0-20.15s3.95-7.11 11.06-9.28c0 0-7.5 1.78-11.25 7.9zm0 10.08s3.95-7.11 11.06-9.29c0 0-7.5 1.78-11.25 7.9zm-.58-4.94s-3.81-7.11-10.67-9.28c0 0 7.24 1.77 10.86 7.9zm0 9.87s-3.81-7.11-10.67-9.28c0 0 7.24 1.78 10.86 7.9z" fill="#263238"/><circle cx="336.52" cy="359.03" r="26.76" transform="rotate(-13.13 336.518 359.03)" fill="#263238" stroke="#263238" stroke-miterlimit="10"/><circle cx="149.1" cy="359.03" r="26.76" transform="rotate(-45 149.105 359.029)" fill="#263238" stroke="#263238" stroke-miterlimit="10"/><path d="M318.47 308.32s-7.1-4.44-39.52-15.1-53.3-14.22-85.27-13.32-75.06 12.88-83.05 16-11.55 4-9.77 6.21 11.54 10.22 10.21 13.77S88 339 86.64 342.07s4.45 13.77 5.33 16.44 5.78 3.55 9.77 4 288.24 0 288.24 0 4-4.88 3.11-11.1-1.84-14.42-5.85-19.67c-3.24-4.26-6.59-8.75-15-9.64-5.33-.57-52.43-13.33-53.77-13.78z" fill="#ff5858"/><g clip-path="url(#a)"><path d="M318.47 308.32s-7.1-4.44-39.52-15.1-53.3-14.22-85.27-13.32-75.06 12.88-83.05 16-11.55 4-9.77 6.21 11.54 10.22 10.21 13.77S88 339 86.64 342.07s4.45 13.77 5.33 16.44 5.78 3.55 9.77 4 288.24 0 288.24 0 4-4.88 3.11-11.1-1.84-14.42-5.85-19.67c-3.24-4.26-6.59-8.75-15-9.64-5.33-.57-52.43-13.33-53.77-13.78z" fill="#ff5858"/><g clip-path="url(#b)"><path d="M318.47 308.32s-7.1-4.44-39.52-15.1-53.3-14.22-85.27-13.32-75.06 12.88-83.05 16-11.55 4-9.77 6.21 11.54 10.22 10.21 13.77S88 339 86.64 342.07s4.45 13.77 5.33 16.44 5.78 3.55 9.77 4 288.24 0 288.24 0 4-4.88 3.11-11.1-1.84-14.42-5.85-19.67c-3.24-4.26-6.59-8.75-15-9.64-5.33-.57-52.43-13.33-53.77-13.78z" opacity=".15"/></g></g><path d="M318.47 308.32s-7.1-4.44-39.52-15.1-53.3-14.22-85.27-13.32-75.06 12.88-83.05 16-11.55 4-9.77 6.21 11.54 10.22 10.21 13.77S88 339 86.64 342.07s4.45 13.77 5.33 16.44 5.78 3.55 9.77 4 288.24 0 288.24 0 4-4.88 3.11-11.1-1.84-14.42-5.85-19.67c-3.24-4.26-6.59-8.75-15-9.64-5.33-.57-52.43-13.33-53.77-13.78z" fill="none" stroke="#263238" stroke-miterlimit="10"/><path fill="#263238" stroke="#263238" stroke-miterlimit="10" d="M373.1 339.41h16.88v4.44H373.1z"/><path d="M365 331.73h2.69a8.6 8.6 0 018 5.4l2.71 6.72h-8.8zm24.77 4.54c-.1.28-.19.56-.27.86l-1.81 6.72h4.22a40.69 40.69 0 00-2.14-7.58z" fill="#fff" stroke="#263238" stroke-miterlimit="10"/><path d="M318.47 308.32s-7.1-4.44-39.52-15.1c-7.41-2.43-14.2-4.49-20.67-6.22h-22.86l-4.88 1.34 65.73 20z" fill="#263238" stroke="#263238" stroke-miterlimit="10"/><path d="M79.1 301.2v30s18.26-15 16-19.27-16-10.73-16-10.73z" fill="#8f8f8f" stroke="#263238" stroke-miterlimit="10"/><path d="M296.27 308.32s-7.11-4.44-39.53-15.1-53.29-14.22-85.27-13.32-75.06 12.88-83 16-11.55 4-9.77 6.21 11.55 10.22 10.21 13.77S65.77 339 64.44 342.07s4.44 13.77 5.33 16.44 5.77 3.55 9.77 4 288.23 0 288.23 0 4-4.88 3.11-11.1S369 337 365 331.73c-3.24-4.26-6.6-8.75-15-9.64-5.29-.56-52.4-13.32-53.73-13.77z" fill="#ff5858"/><g clip-path="url(#c)"><path d="M365 331.73c-3.24-4.26-6.6-8.75-15-9.64-1.4-.15-5.73-1.15-11.36-2.55-26.84-.27-41.79 10.58-81.89 14.26-52.22 4.78-88.35-8.27-131.87-13.5-18.15-2.17-32.8.5-43.73 4.34-6.85 6.92-15.88 15.47-16.72 17.43-1.33 3.11 4.44 13.77 5.33 16.44s5.77 3.55 9.77 4 288.23 0 288.23 0 4-4.88 3.11-11.1S369 337 365 331.73z" opacity=".15"/></g><path d="M296.27 308.32s-7.11-4.44-39.53-15.1-53.29-14.22-85.27-13.32-75.06 12.88-83 16-11.55 4-9.77 6.21 11.55 10.22 10.21 13.77S65.77 339 64.44 342.07s4.44 13.77 5.33 16.44 5.77 3.55 9.77 4 288.23 0 288.23 0 4-4.88 3.11-11.1S369 337 365 331.73c-3.24-4.26-6.6-8.75-15-9.64-5.29-.56-52.4-13.32-53.73-13.77z" fill="none" stroke="#263238" stroke-miterlimit="10"/><path d="M128.31 291.94l17.77 18.77H276.7v-4.26s-26.77-10.51-55-16-35.28-5-48-4.76-45.39 6.25-45.39 6.25z" fill="#8f8f8f"/><g clip-path="url(#d)"><path d="M192 302.5a82.72 82.72 0 00-49.8 4.11l3.88 4.1H276.7v-4.26s-4.33-1.7-11.35-4.09c-14.69 5.64-43.83 6.64-73.35.14z" fill="#263238" stroke="#263238" stroke-miterlimit="10"/></g><path d="M128.31 291.94l17.77 18.77H276.7v-4.26s-26.77-10.51-55-16-35.28-5-48-4.76-45.39 6.25-45.39 6.25z" fill="none" stroke="#263238" stroke-miterlimit="10" stroke-width="4"/><path fill="none" stroke="#263238" stroke-miterlimit="10" d="M187.37 313.21V354"/><circle cx="118.9" cy="359.03" r="26.76" transform="rotate(-13.07 118.977 359.166)" fill="#263238" stroke="#263238" stroke-miterlimit="10"/><path d="M118.9 339.72A19.31 19.31 0 10138.21 359a19.32 19.32 0 00-19.31-19.28zm13 15.44l-11.25 2.11 3.19-10.85a13.61 13.61 0 018.04 8.74zm-12 2.9V360h-1.93v-1.94zm-4.83-12l2.11 11.25-10.86-3.2a13.57 13.57 0 018.68-8.05zm-9.11 16.84l11.25-2.11-3.21 10.85a13.52 13.52 0 01-8.07-8.74zm16.84 9.1l-2.11-11.24 10.83 3.24a13.57 13.57 0 01-8.75 8z" fill="#fff" stroke="#263238" stroke-miterlimit="10"/><path d="M124.89 359a6 6 0 10-6 6 6 6 0 006-6z" fill="#fff" stroke="#263238" stroke-miterlimit="10"/><circle cx="307.21" cy="359.03" r="26.76" transform="rotate(-45 307.214 359.028)" fill="#263238" stroke="#263238" stroke-miterlimit="10"/><path d="M307.21 339.72A19.31 19.31 0 10326.52 359a19.32 19.32 0 00-19.31-19.28zm13 15.44l-11.24 2.11 3.19-10.85a13.58 13.58 0 018.02 8.74zm-12 2.9V360h-1.94v-1.94zm-4.84-12l2.11 11.25-10.85-3.2a13.55 13.55 0 018.71-8.05zm-9.1 16.84l11.25-2.11-3.2 10.85a13.53 13.53 0 01-8.08-8.74zm16.84 9.1L309 360.76l10.82 3.24a13.55 13.55 0 01-8.74 8z" fill="#fff" stroke="#263238" stroke-miterlimit="10"/><path d="M313.2 359a6 6 0 10-6 6 6 6 0 006-6zm51.8-27.27s-19.92-1-20.81 0 6.66 9 9.33 10.79c2.11 1.41 12.05 1.14 16.07 1-.81-4.3-2.12-8.59-4.59-11.79z" fill="#fff" stroke="#263238" stroke-miterlimit="10"/><path d="M190.64 285.82c-1.31-.09-2.54-.15-3.74-.19l-3.35 25h8.88z" fill="#263238" stroke="#263238" stroke-miterlimit="10"/><path d="M223.7 377.9a33.62 33.62 0 01-5 2.65c-2.14.82-3.56 1.32-3.15 2.65s2.74 2.44 5.7 3.05 8.24-.71 9.67-1.12 1.63-2.75.61-4.07-6.1-3.87-7.83-3.16z" fill="#263238" stroke="#263238" stroke-linecap="round" stroke-linejoin="round"/><path d="M224.62 385.54c-2.45 0-6.52-.92-6.52-1.83s1-1.63-.2-1.94-2 1.36-2.2 1.75c.66 1.18 2.85 2.17 5.56 2.73 3 .61 8.24-.71 9.67-1.12A1.67 1.67 0 00232 384a24.72 24.72 0 01-7.38 1.54z" fill="#fff" stroke="#263238" stroke-linecap="round" stroke-linejoin="round"/><path d="M236.22 312.54l.61 2a3.27 3.27 0 00-1.22 2.54 4.9 4.9 0 001.73 2.85" fill="none" stroke="#263238" stroke-linecap="round" stroke-linejoin="round"/><path d="M230 308.57a40.14 40.14 0 00-1.52 5.09v2.75c0 .51-2 11.3-2.45 17.92s-.71 14.35-1.22 16.09.1 2.64.2 5.09.21 14.76.21 14.76-.51 3.26-.61 4.07-1.12 1.12-1.43 1.63a17.65 17.65 0 00-.81 2.54 9.2 9.2 0 014.17 2.45c1.43 1.73 5.29 3.87 5.8 3.76s.82-1.52 1.63-3.46.72-2.95 1.12-3.76 1-2.14 1.94-8.25 1.73-15.17 2.24-16.39 3.15-5.8 3.15-5.8a103.09 103.09 0 005.91-13.75 83 83 0 003.36-13.44 87.23 87.23 0 00.91-9.47v-1s-3.76 1.42-10.48.71-12.12-1.54-12.12-1.54z" fill="#fff" stroke="#263238" stroke-linecap="round" stroke-linejoin="round"/><path d="M244.06 314.48s-4.58 2.44-5.29 3.66-1.63 6.42-3.67 12.83-3.87 11.3-5.6 16.7a40.35 40.35 0 00-2.13 9.57c-.62 4-2 14.56-2 14.56m6.63 11.09s2.24-.81 2.24-5.39-.82-7.84 0-12.22 2.85-11.51 4.07-13.64 2.65-4.89 2.65-4.89" fill="none" stroke="#263238" stroke-linecap="round" stroke-linejoin="round"/><path d="M239.79 345.22s3.56 2.45 4.27 1.53a37.41 37.41 0 002.75-6.11c.92-2.34 1.32-3.46 1.32-3.46s1-.1 1.12-1 .31-2.65.31-2.65a17.87 17.87 0 01-3.26-.4c-1.93-.41-2.65-.31-3.05.61a14 14 0 00-.82 1.93c-.61 1.63-3 7.13-3.05 7.94s-.2 1 .41 1.61z" fill="#fff" stroke="#263238" stroke-linecap="round" stroke-linejoin="round"/><path d="M248.13 337.18a32.85 32.85 0 01-4.17-.51c-1.12-.3-.51-1.73-.51-1.73" fill="#ff5858" stroke="#263238" stroke-linecap="round" stroke-linejoin="round"/><path d="M246.71 333.11s2.65-8.55 3-10.29l.41-1.73m-2.6-8.96s-.71 3.57 0 5.5a11 11 0 003.57 4.18m-18.33-8.15s5.3 1.53 8.45.41" fill="none" stroke="#263238" stroke-linecap="round" stroke-linejoin="round"/><path d="M242.43 273.65s-6.92 1.73-9 2.14-3.15.41-3.46 1.32a79.17 79.17 0 01-7.74 11.81c-2.34 2.55-2.54 5-1.83 6.31s1.53 1.94 4.58 1.12a10.27 10.27 0 005-3.36s.72 7.64-.3 10.69-1.43 5.5-.72 6a21.37 21.37 0 0010.08 2.65c5.6.2 12-.31 13-1.33a2.71 2.71 0 001-2.34c0-.71-.4-5.49.82-9.26s4.68-13.44 4.78-17.11-1.32-4.17-4.07-5.29-7.13-3.05-8.14-3.26a30.65 30.65 0 00-4-.09z" fill="#263238" stroke="#263238" stroke-linecap="round" stroke-linejoin="round"/><path d="M241 271.82a16.07 16.07 0 00-2.34 1.83c-.11.31-3.67 6-3.26 6s4.89-2.24 4.89-2.24 2.23-3.36 2-4.69a1 1 0 00-1.29-.9z" fill="#fff" stroke="#263238" stroke-linecap="round" stroke-linejoin="round"/><path d="M240.14 270.69a27.47 27.47 0 01-.51 6.72c-.71 2.75-1.22 4.58-.2 4.89s4.38-4.69 5.29-6.11a9.76 9.76 0 001.22-2.65l.72-7.94s-4.08 4.4-6.52 5.09z" fill="#fff" stroke="#263238" stroke-linecap="round" stroke-linejoin="round"/><path d="M236.48 251.75s-1 8.66-1 11.92 2.14 7.43 3.15 7.83 3.57.82 4.59.11 3.86-5.09 3.86-5.09a59.89 59.89 0 002.14-9.37c.31-3.46-.61-5.09-3.77-6.11s-7.35-1.04-8.97.71z" fill="#fff" stroke="#263238" stroke-linecap="round" stroke-linejoin="round"/><path d="M238.92 259.19s-.92 5-.51 5.09a14 14 0 001.83.1m-1.42 1.73s2.75.61 4.17-.71" fill="none" stroke="#263238" stroke-linecap="round" stroke-linejoin="round"/><path d="M242.68 259.28c0 .42-.25.74-.48.72s-.37-.39-.33-.8.26-.75.49-.72.37.38.32.8zm-4.27-.41c0 .42-.26.74-.48.72s-.37-.38-.33-.8.26-.74.48-.72.37.38.33.8z" fill="#263238"/><path d="M236.48 257.35a1.58 1.58 0 012.44-.1m1.93-.1s1.94-1.53 3 .1" fill="none" stroke="#263238" stroke-linecap="round" stroke-linejoin="round"/><path d="M234.85 250.33a1.51 1.51 0 000 .25 3.29 3.29 0 002.21 2.19c2.24.92 7.53-.2 9.36.41s1 2.34-.1 2.95-1.32.92-.81 1.63 1.73 1.43 1.32 2.24-.61 1.63.1 1.73 1.22.1 1.53-.3 2.34-4.79 2.34-7.33-1.22-3.67-4.07-4.79-8.76-1.83-10.49-.81a2.46 2.46 0 00-1.39 1.83z" fill="#263238" stroke="#263238" stroke-linecap="round" stroke-linejoin="round"/><path d="M246.66 265.37a1.63 1.63 0 002 .23c1.12-.71 1.63-3.26.92-4.58s-2.14 1.22-2.14 1.22m-5.01 11.41s-.2 9.06.41 8 5.7-7.73 5.7-7.73l-1.22-3.57z" fill="#fff" stroke="#263238" stroke-linecap="round" stroke-linejoin="round"/><path d="M251.39 283.63l-3.46 10.79 6.31 8s.31.61.82-.1.91-.71 1.73-4.58 2-13.24 1.93-15.48-.51-3.36-2.24-3.66" fill="#263238" stroke="#263238" stroke-linecap="round" stroke-linejoin="round"/><path d="M232.05 296.15s15.78 6 17.92 6.11 2.64-1.32 1.73-4-3.67-4.18-6-4.89a17 17 0 00-8.14.1c-2.36.64-5.51 1.87-5.51 2.68z" fill="#fff" stroke="#263238" stroke-linecap="round" stroke-linejoin="round"/><path d="M245.18 293.3s3.77 8.14 4 8.86 4.08 1.22 5.3 1.12.71-1.94-.51-4.58-3.16-5-4.58-5.4a13.36 13.36 0 00-4.21 0z" fill="#fff" stroke="#263238" stroke-linecap="round" stroke-linejoin="round"/><path d="M224.11 290.45a15.68 15.68 0 00-3.87.81c-1.43.61-1.73 4.89-1 6.42s2.95 1.52 4.48 1.42a3 3 0 002.24-1.12l1.12-7.53z" fill="#263238" stroke="#263238" stroke-linecap="round" stroke-linejoin="round"/><path d="M227.06 290.45s11.5 0 14.35-.1 3.57.61 4.18 1.63.81 1.42.81 1.42a44.65 44.65 0 00-10.58 2.34c-4.69 1.84-8.76 3.46-10.19 3.46s-2-3.66-1.42-6.21a3.07 3.07 0 012.85-2.54z" fill="#fff" stroke="#263238" stroke-linecap="round" stroke-linejoin="round"/><path d="M223.8 289.74s4.89-.11 4.79.81-1 7.84-1.33 8.45-3.25.92-4.68.82-.92-4.69 0-6.83a26.73 26.73 0 001.22-3.25z" fill="#fff" stroke="#263238" stroke-linecap="round" stroke-linejoin="round"/><path d="M238.36 313s.82 1.22.51 1.53-1.83 1.73-1.73 2.64a2.52 2.52 0 00.61 1.43" fill="none" stroke="#263238" stroke-linecap="round" stroke-linejoin="round"/><path fill="#fff" stroke="#263238" stroke-linecap="round" stroke-linejoin="round" d="M52.86 385.81h408.88"/></svg>