<svg xmlns="http://www.w3.org/2000/svg" viewBox="0 0 500 500"><defs><clipPath id="a"><path d="M159.1 139.1h0l-5.5-36.44-16.3 3.34-8.13 5.24s-9.7 7.61-9.7 8.39 16.41 28.24 16.41 28.24a30.42 30.42 0 0023.22-8.77z" fill="#fff" stroke="#263238" stroke-linecap="round" stroke-linejoin="round"/></clipPath><clipPath id="b"><path d="M128.39 104.71a62.24 62.24 0 012.36 7.34c.52 2.62 7.6 7.08 8.38 7.34s1.31-8.39 1.31-8.39l-2.09-10.22z" fill="#fff" stroke="#263238" stroke-linecap="round" stroke-linejoin="round"/></clipPath><clipPath id="c"><path d="M120.42 92.67s2.25 9.37 7.08 14 10 4.67 11.79-3.58c1.47-6.8-2.18-15.87-2.18-15.87s-11.78-9.7-16.69 5.45z" fill="#fff" stroke="#263238" stroke-linecap="round" stroke-linejoin="round"/></clipPath><clipPath id="d"><path d="M119.47 119.65l-9.07 36.5 26.6 7.54 1.31-4.72-17.47-8.06 5.93-21s-.78-3.93-5-8.38" fill="#fff" stroke="#263238" stroke-linecap="round" stroke-linejoin="round"/></clipPath><clipPath id="e"><path fill="#fff" stroke="#263238" stroke-linecap="round" stroke-linejoin="round" d="M194.26 130.61l-20.14-4.23-20.57-23.77 3.04 19.12 12.62 12.02 25.36 1.16-.31-4.3z"/></clipPath><clipPath id="f"><path d="M385 332.29H130.79a5.62 5.62 0 01-5.62-5.62V184.43a5.62 5.62 0 015.62-5.62h.69a5.65 5.65 0 005.23-3.54l3.87-9.73a5.47 5.47 0 012.25-2.7 7.2 7.2 0 013.64-1h65.34a7.22 7.22 0 012.57.47 5.45 5.45 0 012.7 2.36l6.65 11.33a5.62 5.62 0 004.85 2.78H385a5.62 5.62 0 015.62 5.62v142.27a5.62 5.62 0 01-5.62 5.62z" fill="#ff5858" stroke="#263238" stroke-miterlimit="10"/></clipPath><clipPath id="g"><rect x="117.2" y="246.41" width="281.38" height="174.43" rx="5.27" fill="#fff" stroke="#263238" stroke-miterlimit="10"/></clipPath><clipPath id="h"><path d="M396.27 231.76l-2.36-7.06-2.65-3.63a.36.36 0 00-.66.22v10.46l2 2.63z" fill="#ff5858" stroke="#263238" stroke-miterlimit="10"/></clipPath><clipPath id="i"><path d="M440.86 244a10.76 10.76 0 00-2 4.09c-.29 1.92.17 9.31.17 9.31l-10.3 1.16s.78-7.51.82-8.76a11.14 11.14 0 015.45-7.4c3.54-1.74 6.55-.89 5.86 1.6z" fill="#fff" stroke="#263238" stroke-miterlimit="10" stroke-width="1.004"/></clipPath><clipPath id="j"><path d="M443 245.27c8.54-11.28-12.05-23-17.46-11.79a21.12 21.12 0 00-1.78 4.36c-.82.5-3 1.84-3.4 2.21s1 1.32 1.77 1.79c-1.47 3.61-1.25 7.41-.83 8.27.73 1.48 4.33 1.5 6.7 1.06s3.31-2.71 4-3.33 4.13.17 5.34.53 4-.87 5.66-3.1z" fill="#fff" stroke="#263238" stroke-miterlimit="10"/></clipPath><clipPath id="k"><path d="M426.72 260.29s-4.73 5.35-6.61 7.55-1.89 25.81-1.89 29.28-1.88 12.89 1.26 14.78 22.35 1.26 24.24-1.89 3.14-40.91 2.83-44.37a9.63 9.63 0 00-5.36-7.24c-2.19-1.01-14.47 1.89-14.47 1.89z" fill="#fff" stroke="#263238" stroke-miterlimit="10"/></clipPath></defs><path d="M378.07 87.43c-49.5-28.29-93.34-5-115.27 19.8s-38.27 49.85-65.8 54.45-69.3-7.07-100.42 14.85-31 80.14-6.36 113.15 88.39 48.79 161.94 59.4a193.9 193.9 0 0079.11-4.39l33.41-12.13c16.32-7.45 30-15.84 41.58-22.65 17.62-10.4 23.83-35.75 27.2-54.32a223.69 223.69 0 00-1.25-84c-7.38-34.86-24.21-67.07-54.14-84.16z" fill="#ff5858"/><path d="M378.07 87.43c-49.5-28.29-93.34-5-115.27 19.8s-38.27 49.85-65.8 54.45-69.3-7.07-100.42 14.85-31 80.14-6.36 113.15 88.39 48.79 161.94 59.4a193.9 193.9 0 0079.11-4.39l33.41-12.13c16.32-7.45 30-15.84 41.58-22.65 17.62-10.4 23.83-35.75 27.2-54.32a223.69 223.69 0 00-1.25-84c-7.38-34.86-24.21-67.07-54.14-84.16z" fill="#fff" opacity=".8"/><path d="M453.74 122.08C452.62 103.6 440 97.54 432 106.34a15.62 15.62 0 00-2.87 16c2.81 7.59 7.64 21.06 10.52 31.6 4.24 15.56 2.82 27.58 7.77 21.22s7.73-29.74 6.32-53.08z" fill="#ff5858" opacity=".8"/><path d="M453.74 122.08C452.62 103.6 440 97.54 432 106.34a15.62 15.62 0 00-2.87 16c2.81 7.59 7.64 21.06 10.52 31.6 4.24 15.56 2.82 27.58 7.77 21.22s7.73-29.74 6.32-53.08z" fill="#fff" opacity=".8"/><path d="M240.18 119.25c7.77-1.41 17.67-19.8 30.4-27.58S272 78.23 260 83.89c0 0-9.2 2.12-16.27 16.27s-11.33 20.5-3.55 19.09z" fill="#ff5858"/><path d="M240.18 119.25c7.77-1.41 17.67-19.8 30.4-27.58S272 78.23 260 83.89c0 0-9.2 2.12-16.27 16.27s-11.33 20.5-3.55 19.09z" fill="#fff" opacity=".8"/><path d="M227.45 109.35c6.31-2.53 13.19-19.71 6-18.83a5.34 5.34 0 00-4.15 3.2c-2.3 5.11-7.53 17.9-1.85 15.63z" fill="#ff5858"/><path d="M227.45 109.35c6.31-2.53 13.19-19.71 6-18.83a5.34 5.34 0 00-4.15 3.2c-2.3 5.11-7.53 17.9-1.85 15.63z" fill="#fff" opacity=".8"/><ellipse cx="265.98" cy="421.67" rx="202.32" ry="7.52" fill="#ff5858"/><ellipse cx="265.98" cy="421.67" rx="202.32" ry="7.52" fill="#fff" opacity=".8"/><path d="M363.22 139a1.5 1.5 0 00-1.5 1.5v7.69h-27.41v-7.69a1.5 1.5 0 10-3 0v193.7a1.5 1.5 0 003 0v-43.33h27.41v43.33a1.5 1.5 0 103 0V140.47a1.5 1.5 0 00-1.5-1.47zm-1.5 148.9h-27.41v-9.72h27.41zm0-12.73h-27.41v-9.71h27.41zm0-12.72h-27.41v-9.68h27.41zm0-12.71h-27.41v-9.64h27.41zm0-12.7h-27.41v-9.53h27.41zm0-12.66h-27.41v-9.59h27.41zm0-12.6h-27.41v-9.68h27.41zm0-12.72h-27.41v-9.68h27.41zm0-12.69h-27.41v-9.71h27.41zm0-12.72h-27.41v-9.73h27.41zm0-12.73h-27.41v-9.73h27.41z" fill="#fff"/><path d="M103.58 295.16s22.45-30.73 11.5-38c-11.39-7.51-16.74 15.24-19.15 26.41-5.14 23.84-3.69 28.9-.24 23.66z" fill="#ff5858"/><path d="M103.58 295.16s22.45-30.73 11.5-38c-11.39-7.51-16.74 15.24-19.15 26.41-5.14 23.84-3.69 28.9-.24 23.66z" fill="#fff" opacity=".5"/><path d="M112 314.06s31.21-21.78 23.2-32.16c-8.33-10.81-20.78 9-26.69 18.76-12.61 20.88-12.87 26.14-7.91 22.3z" fill="#ff5858"/><path d="M112 314.06s31.21-21.78 23.2-32.16c-8.33-10.81-20.78 9-26.69 18.76-12.61 20.88-12.87 26.14-7.91 22.3z" fill="#fff" opacity=".5"/><path d="M112.68 339.32s27-12.13 22.39-21.23c-4.8-9.47-17.19 3.85-23.12 10.47-12.67 14.14-13.63 18.12-9.28 15.91z" fill="#ff5858"/><path d="M112.68 339.32s27-12.13 22.39-21.23c-4.8-9.47-17.19 3.85-23.12 10.47-12.67 14.14-13.63 18.12-9.28 15.91z" fill="#fff" opacity=".5"/><path d="M114.28 364.69s27-12.13 22.4-21.23c-4.81-9.46-17.19 3.85-23.13 10.48-12.66 14.14-13.63 18.12-9.27 15.9z" fill="#ff5858"/><path d="M114.28 364.69s27-12.13 22.4-21.23c-4.81-9.46-17.19 3.85-23.13 10.48-12.66 14.14-13.63 18.12-9.27 15.9z" fill="#fff" opacity=".5"/><path d="M82.61 308s-29.68-23.83-37.39-13.23c-8 11 14.46 17.43 25.51 20.35 23.58 6.23 28.7 5 23.62 1.32z" fill="#ff5858"/><path d="M82.61 308s-29.68-23.83-37.39-13.23c-8 11 14.46 17.43 25.51 20.35 23.58 6.23 28.7 5 23.62 1.32z" fill="#fff" opacity=".5"/><path d="M83.49 327.91s-33.82-17.46-39.27-5.53c-5.67 12.41 17.63 14.21 29 14.87 24.35 1.42 29.13-.8 23.42-3.4z" fill="#ff5858"/><path d="M83.49 327.91s-33.82-17.46-39.27-5.53c-5.67 12.41 17.63 14.21 29 14.87 24.35 1.42 29.13-.8 23.42-3.4z" fill="#fff" opacity=".5"/><path d="M87.58 350.23s-29-14-33.33-3.77c-4.51 10.63 15.23 11.61 24.9 11.9 20.62.64 24.61-1.36 19.72-3.36z" fill="#ff5858"/><path d="M87.58 350.23s-29-14-33.33-3.77c-4.51 10.63 15.23 11.61 24.9 11.9 20.62.64 24.61-1.36 19.72-3.36z" fill="#fff" opacity=".5"/><path d="M89 368.26s-27.36-17-32.75-7.29c-5.61 10.09 13.92 13.16 23.5 14.48 20.44 2.82 24.61 1.27 20-1.3z" fill="#ff5858"/><path d="M89 368.26s-27.36-17-32.75-7.29c-5.61 10.09 13.92 13.16 23.5 14.48 20.44 2.82 24.61 1.27 20-1.3z" fill="#fff" opacity=".5"/><path d="M86.41 277.81s-5.14-44.63-22-40.07C46.9 242.5 61.56 265.08 69 276c15.81 23.24 21.63 25.8 20.38 18.54z" fill="#ff5858"/><path d="M86.41 277.81s-5.14-44.63-22-40.07C46.9 242.5 61.56 265.08 69 276c15.81 23.24 21.63 25.8 20.38 18.54z" fill="#fff" opacity=".5"/><path d="M67.86 254s25.66 48.08 29.64 70.4c4.58 25.64 5.32 54.28 2.16 76.72m-6.21-91.57l12.57-38.5M97.5 324.4l23.66-29.75m-25.17 24.34L61.73 304.6m38.74 39.95l25.76-19.74M99.1 336.08l-26.91-5.6m28.2 26.21l-20.84-3.3m22.6 16.64l14.02-12.56m-14.3 18.21l-23.95-6.02" fill="none" stroke="#ff5858" stroke-linecap="round" stroke-linejoin="round" stroke-width="1.252"/><path fill="#ff5858" d="M84.13 383.01h28.31v5.86h-2.47l-5.11 31.97H91.71l-5.11-31.97h-2.47v-5.86z"/><path fill="#fff" opacity=".5" d="M84.13 383.01h28.31v5.86h-2.47l-5.11 31.97H91.71l-5.11-31.97h-2.47v-5.86z"/><path d="M130.75 81.12a9.22 9.22 0 00-9.18-1.83c-5.5 1.83-10.77 9.78-9.44 16.51.93 4.66 5.25 11.53 6.56 14.15s-.53 7.05-4.69 16.25-5.77 17.83 6.29 25.43S146 147.17 153 138.52s-5.25-28.57-6.3-37-2.85-24.59-15.95-20.4z" fill="#263238"/><path d="M159.1 139.1a28.88 28.88 0 01-23.1 8.34l-2.89 12.05 5.5 27.51 35.91-18.61-8.13-21z" fill="#ff5858" stroke="#263238" stroke-linecap="round" stroke-linejoin="round"/><path d="M159.1 139.1a28.88 28.88 0 01-23.1 8.34l-2.89 12.05 5.5 27.51 35.91-18.61-8.13-21z" fill="#263238" opacity=".3"/><path d="M159.1 139.1l-5.5-36.44-16.3 3.34-8.13 5.24s-9.7 7.61-9.7 8.39 16.41 28.24 16.41 28.24a30.42 30.42 0 0023.22-8.77z" fill="#fff"/><g clip-path="url(#a)"><path d="M166.39 147.44l-7.34-8.39-5.5-36.44L137.3 106l-3.84 2.48 1.22 16.52a9.61 9.61 0 003.24 1.16c1.16 0 2.09-2.55 2.09-2.55l1.39-2.32a5.1 5.1 0 005.34.47c3.24-1.4 1.39-6.5.92-8.35s4.41-.7 4.41-.7 3.94 8.58 4.41 11.36-2.09 10.44-1.86 12.07.23 4.63-.69 5.56-4.18 6-4.18 6 13.69 1.16 15.08 1.16a11.76 11.76 0 002-.39z" style="mix-blend-mode:multiply" fill="none" opacity=".5"/></g><path d="M159.1 139.1h0l-5.5-36.44-16.3 3.34-8.13 5.24s-9.7 7.61-9.7 8.39 16.41 28.24 16.41 28.24a30.42 30.42 0 0023.22-8.77z" fill="none" stroke="#263238" stroke-linecap="round" stroke-linejoin="round"/><path d="M137.23 137.54s11.49-8.52 10.43-6-9 8.81-11.13 9 .7-3 .7-3z" fill="#ff5858" opacity=".5"/><path fill="#263238" d="M137.58 121.36l.45.47 2.8 2.96.72 11.37 3.43-.54-2.71-10.65 4.34 9.02 3.61-3.61-7.76-7.04-.19-5.59-3.97-1.99"/><path d="M131.27 107.86s-3.41 1.57-3.41 4.71 3.69 10.61 6 12.18 6.27-5.62 6.27-5.62 6 2.88 7.6.26-3.67-11.27-7.07-13.63-9.39 2.1-9.39 2.1z" fill="#fff" stroke="#263238" stroke-linecap="round" stroke-linejoin="round"/><path d="M128.39 104.71a62.24 62.24 0 012.36 7.34c.52 2.62 7.6 7.08 8.38 7.34s1.31-8.39 1.31-8.39l-2.09-10.22z" fill="#fff"/><g clip-path="url(#b)"><path d="M138.57 101.87a10.16 10.16 0 00-1.34-.28l-7.23 2.55-.95 2.48c.48 1.34 1.09 3.14 1.46 4.6a8.05 8.05 0 004.13 1.73c2.17.15 4.08-1.53 5.43-3.59z" style="mix-blend-mode:multiply" fill="#ff5858" opacity=".5"/></g><path d="M128.39 104.71a62.24 62.24 0 012.36 7.34c.52 2.62 7.6 7.08 8.38 7.34s1.31-8.39 1.31-8.39l-2.09-10.22z" fill="none" stroke="#263238" stroke-linecap="round" stroke-linejoin="round"/><path d="M123.67 100.25s-2.89-2.35-2.89 0 2.63 3.67 4.72 3.67m13.63-11.27s1.84-2.88 2.36.27a8 8 0 01-1.57 5.76z" fill="#fff" stroke="#263238" stroke-linecap="round" stroke-linejoin="round"/><path d="M123.67 100.25s-2.89-2.35-2.89 0 2.63 3.67 4.72 3.67m13.63-11.27s1.84-2.88 2.36.27a8 8 0 01-1.57 5.76z" fill="#ff5858" stroke="#263238" stroke-linecap="round" stroke-linejoin="round" opacity=".5"/><path d="M120.42 92.67s2.25 9.37 7.08 14 10 4.67 11.79-3.58c1.47-6.8-2.18-15.87-2.18-15.87s-11.78-9.7-16.69 5.45z" fill="#fff"/><g clip-path="url(#c)"><path d="M128.81 84.17l1.83 4.6s2.88-.64 4.5 2.84 3.25 8.58 2.32 12.53c-.89 3.76-3 5-6.25 5.09 3.54 1.51 6.75 0 8.08-6.16 1.47-6.8-2.18-15.87-2.18-15.87s-3.99-3.27-8.3-3.03z" style="mix-blend-mode:multiply" fill="#ff5858" opacity=".5"/></g><path d="M120.42 92.67s2.25 9.37 7.08 14 10 4.67 11.79-3.58c1.47-6.8-2.18-15.87-2.18-15.87s-11.78-9.7-16.69 5.45z" fill="none" stroke="#263238" stroke-linecap="round" stroke-linejoin="round"/><path d="M129.36 97.62c.28.53.23 1.1-.11 1.28s-.84-.11-1.11-.64-.23-1.09.11-1.27.84.11 1.11.63zm5.22-1.62c.2.56.07 1.12-.29 1.24s-.82-.22-1-.78-.07-1.12.29-1.24.8.24 1 .78z" fill="#263238"/><path d="M134.94 93a2.25 2.25 0 00-2.72.16c-1.44 1.12 1.28 6.73 1.28 6.73s.05 1.77-2.22.95m3.66 1.82a2.58 2.58 0 01-4 1m-2.09-9.17s-2.56-2.41-3.68 2.24" fill="none" stroke="#263238" stroke-linecap="round" stroke-linejoin="round" stroke-width=".5"/><path d="M137.26 84.25c-2.81-2.44-5.08-2.41-6.07-2.09a6.71 6.71 0 00-3.07-1c-7.86-1.05-8.91 5-8.91 10.75s-5 12.58-1.57 13.37a4.1 4.1 0 004.72-2.36s3.67-6 3.67-10.23 4.57-3.83 4.57-3.83a2.44 2.44 0 013.68-.42c2.08 1.78 2.32 3.87 4 4.41s4.49-2.16 4.49-2.16a39.56 39.56 0 00-5.51-6.44z" fill="#263238"/><path d="M130.82 85.82s-3.16-2.54-6 .31-2.53 8.24-3.48 11.73-3.49 4.12-3.49 4.12" fill="none" stroke="#fff" stroke-linecap="round" stroke-linejoin="round" stroke-width=".5"/><path d="M128.61 84.87s-3.41-3.38-7.7.9c-3.27 3.28-1.81 5.43-2.45 10.82m13.95-12.36s6-2.85 8.56 4.44" fill="none" stroke="#fff" stroke-linecap="round" stroke-linejoin="round" stroke-width=".5"/><path d="M119.47 119.65l-9.07 36.5 26.6 7.54 1.31-4.72-17.47-8.06 5.93-21s-.78-3.93-5-8.38" fill="#fff"/><g clip-path="url(#d)"><path d="M138.35 159l-17.47-8.06 5.93-21a16.12 16.12 0 00-2.23-4.89l-.57-.43v5.8c0 3.71-4.64 15.54-6.27 18.32s-4.17 6.26-4.17 6.26l5.1-2.32 19.33 7.74z" style="mix-blend-mode:multiply" fill="#ff5858" opacity=".5"/></g><path d="M119.47 119.65l-9.07 36.5 26.6 7.54 1.31-4.72-17.47-8.06 5.93-21s-.78-3.93-5-8.38" fill="none" stroke="#263238" stroke-linecap="round" stroke-linejoin="round"/><path fill="#fff" d="M194.26 130.61l-20.14-4.23-20.57-23.77 3.04 19.12 12.62 12.02 25.36 1.16-.31-4.3z"/><g clip-path="url(#e)"><path d="M153.55 102.61l2.45 15.26 1.56 4.77.2.18c.59-.61 3.92-4.07 4.77-4.07s10.44 8.35 9.05 9l-1.4.69 23.89 3.94.17-1.83-20.1-4.22z" style="mix-blend-mode:multiply" fill="#ff5858" opacity=".5"/></g><path fill="none" stroke="#263238" stroke-linecap="round" stroke-linejoin="round" d="M194.26 130.61l-20.14-4.23-20.57-23.77 3.04 19.12 12.62 12.02 25.36 1.16-.31-4.3z"/><path d="M382.27 333L125.8 295.42a3.11 3.11 0 01-2.62-3.53l21.36-145.71a3.1 3.1 0 013.52-2.62l4.86.71a3.09 3.09 0 003.14-1.52l6.45-11.15a2.94 2.94 0 01.78-.9 7.15 7.15 0 015.23-1.28l64.65 9.48a7.14 7.14 0 013.87 1.86 3 3 0 01.66 1l5.75 14.24a3.09 3.09 0 002.43 1.91l158.65 23.26a3.11 3.11 0 012.63 3.52l-21.36 145.7a3.11 3.11 0 01-3.53 2.61z" fill="#263238" stroke="#263238" stroke-miterlimit="10"/><path d="M385 332.29H130.79a5.62 5.62 0 01-5.62-5.62V184.43a5.62 5.62 0 015.62-5.62h.69a5.65 5.65 0 005.23-3.54l3.87-9.73a5.47 5.47 0 012.25-2.7 7.2 7.2 0 013.64-1h65.34a7.22 7.22 0 012.57.47 5.45 5.45 0 012.7 2.36l6.65 11.33a5.62 5.62 0 004.85 2.78H385a5.62 5.62 0 015.62 5.62v142.27a5.62 5.62 0 01-5.62 5.62z" fill="#ff5858"/><g clip-path="url(#f)"><path d="M385 332.29H130.79a5.62 5.62 0 01-5.62-5.62V184.43a5.62 5.62 0 015.62-5.62h.69a5.65 5.65 0 005.23-3.54l3.87-9.73a5.47 5.47 0 012.25-2.7 7.2 7.2 0 013.64-1h65.34a7.22 7.22 0 012.57.47 5.45 5.45 0 012.7 2.36l6.65 11.33a5.62 5.62 0 004.85 2.78H385a5.62 5.62 0 015.62 5.62v142.27a5.62 5.62 0 01-5.62 5.62z" fill="#263238" opacity=".1"/></g><path d="M385 332.29H130.79a5.62 5.62 0 01-5.62-5.62V184.43a5.62 5.62 0 015.62-5.62h.69a5.65 5.65 0 005.23-3.54l3.87-9.73a5.47 5.47 0 012.25-2.7 7.2 7.2 0 013.64-1h65.34a7.22 7.22 0 012.57.47 5.45 5.45 0 012.7 2.36l6.65 11.33a5.62 5.62 0 004.85 2.78H385a5.62 5.62 0 015.62 5.62v142.27a5.62 5.62 0 01-5.62 5.62z" fill="none" stroke="#263238" stroke-miterlimit="10"/><path d="M197 178.33h-40.68a3.66 3.66 0 01-3.66-3.66 3.66 3.66 0 013.66-3.67H197a3.67 3.67 0 013.67 3.67 3.66 3.66 0 01-3.67 3.66z" fill="#fff"/><path d="M385 357.11H130.79a5.62 5.62 0 01-5.62-5.62V209.25a5.62 5.62 0 015.62-5.62h.69a5.64 5.64 0 005.23-3.54l3.87-9.72a5.43 5.43 0 012.25-2.7 7.11 7.11 0 013.64-1h65.34a7.22 7.22 0 012.57.47 5.42 5.42 0 012.7 2.37l6.65 11.34a5.62 5.62 0 004.85 2.78H385a5.62 5.62 0 015.62 5.62v142.24a5.62 5.62 0 01-5.62 5.62z" fill="#263238" stroke="#263238" stroke-miterlimit="10"/><path d="M216.49 149l-40.36-5a3.68 3.68 0 01-3.19-4.09 3.67 3.67 0 014.1-3.18l40.35 5a3.67 3.67 0 013.19 4.09 3.66 3.66 0 01-4.09 3.18z" fill="#ff5858"/><path d="M216.49 149l-40.36-5a3.68 3.68 0 01-3.19-4.09 3.67 3.67 0 014.1-3.18l40.35 5a3.67 3.67 0 013.19 4.09 3.66 3.66 0 01-4.09 3.18z" fill="#fff" opacity=".5"/><path d="M197 203.16h-40.68a3.66 3.66 0 01-3.66-3.67 3.67 3.67 0 013.66-3.67H197a3.67 3.67 0 013.67 3.67 3.67 3.67 0 01-3.67 3.67z" fill="#ff5858"/><path d="M197 203.16h-40.68a3.66 3.66 0 01-3.66-3.67 3.67 3.67 0 013.66-3.67H197a3.67 3.67 0 013.67 3.67 3.67 3.67 0 01-3.67 3.67z" fill="#fff" opacity=".5"/><rect x="117.2" y="246.41" width="281.38" height="174.43" rx="5.27" fill="#fff"/><g clip-path="url(#g)"><path d="M398.58 293.36a421.52 421.52 0 01-105.1 71.9c-56.85 27.19-121.83 45.93-159.69 55.58H393.3a5.27 5.27 0 005.28-5.27z" style="mix-blend-mode:multiply" fill="#ff5858"/><path d="M398.58 293.36a421.52 421.52 0 01-105.1 71.9c-56.85 27.19-121.83 45.93-159.69 55.58H393.3a5.27 5.27 0 005.28-5.27z" fill="#fff" opacity=".2"/></g><rect x="117.2" y="246.41" width="281.38" height="174.43" rx="5.27" fill="none" stroke="#263238" stroke-miterlimit="10"/><path d="M121.27 261.73v-7a5.28 5.28 0 015.28-5.27H138m-16.73 118.58v-97.78M394.5 401.4v11.07a5.27 5.27 0 01-5.27 5.28H380m14.5-158.48v133.9" fill="none" stroke="#263238" stroke-miterlimit="10"/><rect x="213.32" y="310.19" width="89.13" height="48.15" rx="2.73" fill="#263238" stroke="#263238" stroke-miterlimit="10"/><rect x="213.32" y="310.19" width="89.13" height="14.64" rx="2.73" fill="#fff" stroke="#263238" stroke-miterlimit="10"/><path d="M137 163.69l1.83 3.41 3.89 2.8a1.51 1.51 0 001.7.06l.34-.22a1.19 1.19 0 00.47-1.5l-2.21-5.08 1.49 1.16a1.15 1.15 0 001.59-.18h0a1.16 1.16 0 000-1.45l-3.47-4.39-4.34.67z" fill="#fff" stroke="#263238" stroke-miterlimit="10"/><path fill="none" stroke="#263238" stroke-linecap="round" stroke-linejoin="round" stroke-width=".5" d="M144.8 169.74l-3.48-4.57m1.44 4.73l-2.73-3.62"/><path d="M194.26 130.61l5.44.32 6.62 4.23s.37 1.29-.55 1.47-5.89-1.65-5.89-1.65l-5.31-.07z" fill="#fff" stroke="#263238" stroke-miterlimit="10"/><path d="M194.54 134.24l5.71 2.58s.92-1.29-.37-1.84l-1.88-1.29" fill="#fff" stroke="#263238" stroke-linejoin="round"/><path d="M396.27 231.76l-2.36-7.06-2.65-3.63a.36.36 0 00-.66.22v10.46l2 2.63z" fill="#fff"/><path d="M434.73 262.63l-19.8.7a3.85 3.85 0 01-3.56-2.09l-15.1-29.48s-3.4 1.84-3.66 2.62 11.18 29.47 14.69 38.28a3.85 3.85 0 003.73 2.42l22.13-.94" fill="#fff" stroke="#263238" stroke-miterlimit="10"/><path fill="#fff" stroke="#263238" stroke-miterlimit="10" stroke-width=".75" d="M397.72 235.43l-3.1 1.28"/><g opacity=".5" fill="#ff5858" stroke="#263238" stroke-miterlimit="10"><path d="M434.73 262.63l-19.8.7a3.85 3.85 0 01-3.56-2.09l-15.1-29.48s-3.4 1.84-3.66 2.62 11.18 29.47 14.69 38.28a3.85 3.85 0 003.73 2.42l22.13-.94"/><path stroke-width=".75" d="M397.72 235.43l-3.1 1.28"/></g><path d="M396.27 231.76l-2.36-7.06-2.65-3.63a.36.36 0 00-.66.22v10.46l2 2.63z" fill="#ff5858"/><g clip-path="url(#h)"><path d="M396.27 231.76l-2.36-7.06-2.65-3.63a.36.36 0 00-.66.22v10.46l2 2.63z" fill="#fff" opacity=".5"/></g><path d="M396.27 231.76l-2.36-7.06-2.65-3.63a.36.36 0 00-.66.22v10.46l2 2.63z" fill="none" stroke="#263238" stroke-miterlimit="10"/><path d="M440.86 244a10.76 10.76 0 00-2 4.09c-.29 1.92.17 9.31.17 9.31l-10.3 1.16s.78-7.51.82-8.76a11.14 11.14 0 015.45-7.4c3.54-1.74 6.55-.89 5.86 1.6z" fill="#fff"/><g clip-path="url(#i)"><path d="M440.79 244.08c-1.87-.51-4.14-1.08-6.06-1.54a11.18 11.18 0 00-5.21 7.25c0 .48-.14 1.88-.28 3.42 1-.23 2.59-.58 3.77-.79a16.55 16.55 0 002.75-.69l-.35 6h.23l3.36-.38s-.46-7.39-.17-9.31a10.51 10.51 0 011.96-3.96z" style="mix-blend-mode:multiply" fill="#ff5858" opacity=".5"/></g><path d="M440.86 244a10.76 10.76 0 00-2 4.09c-.29 1.92.17 9.31.17 9.31l-10.3 1.16s.78-7.51.82-8.76a11.14 11.14 0 015.45-7.4c3.54-1.74 6.55-.89 5.86 1.6z" fill="none" stroke="#263238" stroke-miterlimit="10" stroke-width="1.004"/><path d="M443 245.27c8.54-11.28-12.05-23-17.46-11.79a21.12 21.12 0 00-1.78 4.36c-.82.5-3 1.84-3.4 2.21s1 1.32 1.77 1.79c-1.47 3.61-1.25 7.41-.83 8.27.73 1.48 4.33 1.5 6.7 1.06s3.31-2.71 4-3.33 4.13.17 5.34.53 4-.87 5.66-3.1z" fill="#fff"/><g clip-path="url(#j)"><path d="M434.55 244.19s.18.85-1.54 1.54-2.06.17-2.57 1.37a4.28 4.28 0 01-3.43 3.09 41.07 41.07 0 01-4.93.63c1.36.76 4.06.7 6 .35 2.36-.43 3.31-2.71 4-3.33s4.13.17 5.34.53a2.2 2.2 0 00.86 0 9.38 9.38 0 00.8-3.18z" style="mix-blend-mode:multiply" fill="#ff5858" opacity=".5"/></g><path d="M443 245.27c8.54-11.28-12.05-23-17.46-11.79a21.12 21.12 0 00-1.78 4.36c-.82.5-3 1.84-3.4 2.21s1 1.32 1.77 1.79c-1.47 3.61-1.25 7.41-.83 8.27.73 1.48 4.33 1.5 6.7 1.06s3.31-2.71 4-3.33 4.13.17 5.34.53 4-.87 5.66-3.1z" fill="none" stroke="#263238" stroke-miterlimit="10"/><path d="M426.32 238.83c-.22.48-.59.78-.83.67s-.26-.59 0-1.07.59-.78.83-.67.22.59 0 1.07z" fill="#263238"/><path d="M426.12 235.75s1-.83 1.2 1.08m-5.39 6.95s0 1 1.8 1" fill="none" stroke="#263238" stroke-linecap="round" stroke-linejoin="round" stroke-width=".5"/><path d="M419.49 309.22l-.79 9.78s-5.47 38.94-5.21 43.41.85 50.65.85 50.65l6.59 1.05 7.4-51.22 10.39-52.05z" fill="#ff5858" stroke="#263238" stroke-miterlimit="10"/><path d="M419.49 309.22l-.79 9.78s-5.47 38.94-5.21 43.41.85 50.65.85 50.65l6.59 1.05 7.4-51.22 10.39-52.05z" fill="#263238" opacity=".2"/><path d="M427.83 344.79s-2.53 14.89-4.44 22.19-1.9 14.58-1.9 22.5-2.85 22.52-2.85 22.52" fill="none" stroke="#263238" stroke-miterlimit="10" stroke-width=".75"/><path d="M432.86 306.82c4.34-2.28 9-3.79 10.33-.76 2.64 6.06-.52 15.27-.52 15.27l2.41 42.48 4.41 51.25-6.59-1.06s-10.12-43.25-11.7-45.89-4.07-39.67-4.07-39.67l-5-4.55" fill="#ff5858" stroke="#263238" stroke-miterlimit="10"/><path d="M432.86 306.82c4.34-2.28 9-3.79 10.33-.76 2.64 6.06-.52 15.27-.52 15.27l2.41 42.48 4.41 51.25-6.59-1.06s-10.12-43.25-11.7-45.89-4.07-39.67-4.07-39.67l-5-4.55" fill="#263238" opacity=".2"/><path d="M438 339c.15 9.85 1.15 14.59 1.93 17.19.95 3.17.63 9.19.63 12s-1.27-.63 1.59 12.37 4.75 31.06 4.75 31.06m-8.9-94.09s.31-.64 0 14.26v2.32" fill="none" stroke="#263238" stroke-miterlimit="10" stroke-width=".75"/><path fill="none" stroke="#263238" stroke-linecap="round" stroke-linejoin="round" stroke-width=".75" d="M423.37 314.7l-.21 4.46-1.03 3.1 1.54 1.8m-2.32-6.7s2.58 2.58 9.28 1.8"/><path d="M437.18 315.13c5-1 5.32-2.38 7.05-3.54a14.43 14.43 0 00-1-5.53c-1.31-3-6-1.52-10.33.76l-2.1 3.32-11.27-.92-.36 4.42a36.82 36.82 0 0018.01 1.49z" fill="#263238"/><path fill="#fff" stroke="#263238" stroke-miterlimit="10" stroke-width=".75" d="M420.62 312.28l-.11 1.76 2.86.66.22-2.31-2.97-.11z"/><path fill="#ff5858" stroke="#263238" stroke-miterlimit="10" d="M440.58 314.89l-.48-4.38 1.45-.48.73 3.89m-12.88 2.43l-.97-5.11h2.43l.97 4.38"/><path d="M440.58 314.89l-.48-4.38 1.45-.48.73 3.89m-12.88 2.43l-.97-5.11h2.43l.97 4.38" opacity=".2" fill="#263238"/><path d="M418.2 270.46s-.83 5.55-3.32 15-5 20.78-5 20.78l1.39 5.82 4.15-6.1zm6.93-8.03s-5.82 1.38-6.37 4.15a23 23 0 00-.56 3.88l8.87-7.2 11.09-4.44z" fill="#263238" stroke="#263238" stroke-miterlimit="10"/><path d="M426.72 260.29s-4.73 5.35-6.61 7.55-1.89 25.81-1.89 29.28-1.88 12.89 1.26 14.78 22.35 1.26 24.24-1.89 3.14-40.91 2.83-44.37a9.63 9.63 0 00-5.36-7.24c-2.19-1.01-14.47 1.89-14.47 1.89z" fill="#fff"/><g clip-path="url(#k)"><path d="M441.19 258.4a2.51 2.51 0 00-.82-.18l-1.36.71a12.9 12.9 0 014.46 7.38 39.23 39.23 0 01-.17 12.69c-.68 4.63-11.66 0-9.6 1.72s9.77 4.63 10.12 6.17-3.82 4.11-5.32 4.29 1 3.6 2.57 6.51 1 7-2.57 9.78-11.86 4.15-15.44 4.29c-1.16 0-1.88.3-2.1.64 5.5 1.23 21.07.43 22.76-2.39 1.89-3.15 3.14-40.91 2.83-44.37a9.63 9.63 0 00-5.36-7.24z" style="mix-blend-mode:multiply" fill="#ff5858" opacity=".5"/></g><path d="M426.72 260.29s-4.73 5.35-6.61 7.55-1.89 25.81-1.89 29.28-1.88 12.89 1.26 14.78 22.35 1.26 24.24-1.89 3.14-40.91 2.83-44.37a9.63 9.63 0 00-5.36-7.24c-2.19-1.01-14.47 1.89-14.47 1.89z" fill="none" stroke="#263238" stroke-miterlimit="10"/><path d="M436.39 284.24c-5.07-1.58-9.51-6-9.51-6a21.45 21.45 0 008.56 13" fill="#fff" stroke="#263238" stroke-linecap="round" stroke-linejoin="round" stroke-width=".75"/><path fill="#fff" stroke="#263238" stroke-miterlimit="10" d="M440.25 254.94l-15.11 3.46-.94 4.41 16.99-4.41-.94-3.46z"/><path fill="#263238" stroke="#263238" stroke-miterlimit="10" d="M421.81 420.71l-.88-6.64-6.59-1.05-5.49 3.91-4.92 2.7v1.08h17.88zm28.5.52l-.82-6.17-6.59-1.06-5.49 3.91-4.92 2.71v.61h17.82z"/><path d="M393.39 226l-4.06-2.35s-1.58-.19-.9 1.57l4.06 3.13m.3 3.76a4.06 4.06 0 00-.83-1.3l-.76-.82h0l-4.13-5.12s-1.28-.86-1 1l2.56 5-4.55-4.27s-.86-.71-.86.29 4.13 5.41 4.13 5.41l-4.56-2.14s-1 .71-.28 1.42 4.55 2.14 4.55 2.14l-3.41-.14s-1 .85-.29 1.14 4.7 1.13 4.7 1.13a5.68 5.68 0 001.71 1l1 1.85 3.83-1.93z" fill="#fff" stroke="#263238" stroke-linecap="round" stroke-linejoin="round"/><path d="M433.68 276.5l-22.82 5.35a5.13 5.13 0 01-5.67-3.19l-14.4-40 3.83-1.93 15.91 29.47a3.56 3.56 0 003.84 1.81l17.45-4.93" fill="#fff"/><path d="M433.68 276.5l-22.82 5.35a5.13 5.13 0 01-5.67-3.19l-14.4-40 3.83-1.93 15.91 29.47a3.56 3.56 0 003.84 1.81l17.45-4.93" fill="none" stroke="#263238" stroke-miterlimit="10"/><path fill="none" stroke="#263238" stroke-miterlimit="10" stroke-width=".75" d="M396.77 240.5l-4.44 2.22"/><path d="M430.84 233.6s-2.43 2.43-1.22 4.25a12.11 12.11 0 011.62 3.43s-1 2.43-.2 2.43.4-1.82 1.82-1.41 2.83 2.83 1.62 3.64a13.82 13.82 0 01-2.86 1.2.68.68 0 00-.14 1.24 9.63 9.63 0 004.41 1.6 15.46 15.46 0 003.84-.4s4-5.46 6.88-6.88 1.62-7.89 1.62-8.7-2.83-2.63-2.83-2.63.81-1.82-2.83-5.86-10.52-4.86-10.72-3.44a2 2 0 00.81 2s-6.07-2.63-8.9.2 7.08 9.33 7.08 9.33z" fill="#263238" stroke="#263238" stroke-miterlimit="10"/><path d="M430.84 233.6s4.92 6 12.21 6.58m-13.95-4.75s2.29 6.66 11.76 8.56" fill="none" stroke="#fff" stroke-linecap="round" stroke-linejoin="round" stroke-width=".5"/></svg>