<svg width="20" height="40" fill="none" xmlns="http://www.w3.org/2000/svg"><path d="M16.889 16.5c.736 0 1.333-.671 1.333-1.5 0-.828-.597-1.5-1.333-1.5s-1.333.672-1.333 1.5c0 .829.597 1.5 1.333 1.5zm0 20c.736 0 1.333-.672 1.333-1.5s-.597-1.5-1.333-1.5-1.333.672-1.333 1.5.597 1.5 1.333 1.5zm0-30c.736 0 1.333-.671 1.333-1.5 0-.828-.597-1.5-1.333-1.5s-1.333.672-1.333 1.5c0 .829.597 1.5 1.333 1.5z" fill="#F16522"/><path d="M17.733 22.55C17.556 21.1 16.444 20 15.111 20h-1.333V3c0-1.65-1.2-3-2.667-3H6.667C5.2 0 4 1.35 4 3v17H2.667C1.2 20 0 21.35 0 23v6.5c0 1.65 1.2 3 2.667 3H4V37c0 1.65 1.2 3 2.667 3h4.444c1.467 0 2.667-1.35 2.667-3v-4.5h1.333c1.156 0 2.178-.85 2.533-2C18.978 30.3 20 28.8 20 27.25v-2c0-1.5-.978-2.55-2.267-2.7zM5.778 3c0-.55.4-1 .889-1h4.444C11.6 2 12 2.45 12 3v17H9.778V5.5c0-.55-.4-1-.89-1C8.4 4.5 8 4.95 8 5.5V20H5.778V3zM12 37c0 .55-.4 1-.889 1H6.667c-.49 0-.89-.45-.89-1v-4.5H8v2c0 .55.4 1 .889 1s.889-.45.889-1v-2H12V37zm4-12.5v5.2l-.044.15c-.09.3-.4.65-.845.65H2.667c-.49 0-.89-.45-.89-1V23c0-.55.4-1 .89-1H15.11c.445 0 .8.35.889.85v1.65zm2.222 2.75c0 .35-.178.7-.444.85v-3.6c.266.15.444.4.444.75v2z" fill="#F16522"/></svg>