<svg xmlns="http://www.w3.org/2000/svg" viewBox="0 0 254.532 254.532"><path d="M127.267 0C57.092 0 0 57.091 0 127.266s57.092 127.266 127.267 127.266c70.174 0 127.266-57.091 127.266-127.266S197.44 0 127.267 0zm0 217.656c-49.922 0-90.391-40.468-90.391-90.39s40.469-90.39 90.391-90.39c49.92 0 90.39 40.468 90.39 90.39s-40.471 90.39-90.39 90.39z"/><path d="M127.267 48.578c-43.39 0-78.689 35.299-78.689 78.688s35.3 78.688 78.689 78.688c43.389 0 78.688-35.299 78.688-78.688s-35.3-78.688-78.688-78.688zm68.611 73.671h-38.18a30.667 30.667 0 00-5.435-13.079l26.954-26.954c9.462 10.896 15.554 24.78 16.661 40.033zm-63.674-63.601c15.244 1.087 29.123 7.156 40.025 16.591l-26.948 26.949a30.674 30.674 0 00-13.077-5.433V58.648zm-9.875 0v38.106a30.667 30.667 0 00-13.078 5.434L82.302 75.24c10.902-9.435 24.783-15.505 40.027-16.592zM75.313 82.217l26.955 26.954a30.658 30.658 0 00-5.434 13.077h-38.18c1.107-15.252 7.199-29.135 16.659-40.031zm-16.67 49.906h38.192a30.654 30.654 0 005.434 13.078L75.24 172.23c-9.452-10.922-15.526-24.832-16.597-40.107zm63.686 63.761c-15.285-1.09-29.197-7.188-40.113-16.666l27.035-27.035a30.667 30.667 0 0013.078 5.434v38.267zm0-48.425v.072a20.833 20.833 0 01-5.953-2.474l.047-.047a20.954 20.954 0 01-6.982-6.983l-.046.046a20.827 20.827 0 01-2.474-5.952h.071a20.866 20.866 0 01-.611-4.937c0-1.704.227-3.352.611-4.937h-.071a20.805 20.805 0 012.474-5.951l.046.046a20.96 20.96 0 016.982-6.982l-.047-.047a20.805 20.805 0 015.953-2.474v.072c1.586-.385 3.233-.612 4.938-.612s3.352.227 4.938.612v-.072a20.807 20.807 0 015.951 2.473l-.047.047a20.945 20.945 0 016.983 6.982l.046-.046a20.807 20.807 0 012.475 5.953h-.071c.385 1.585.611 3.233.611 4.937 0 1.704-.227 3.352-.611 4.937h.071a20.779 20.779 0 01-2.475 5.953l-.046-.046a20.963 20.963 0 01-6.983 6.982l.047.046a20.81 20.81 0 01-5.951 2.474v-.072c-1.586.385-3.233.612-4.938.612s-3.352-.226-4.938-.612zm9.875 48.425v-38.267a30.674 30.674 0 0013.077-5.433l27.034 27.034c-10.915 9.478-24.827 15.576-40.111 16.666zm47.088-23.654l-27.028-27.028a30.68 30.68 0 005.435-13.079h38.191c-1.072 15.275-7.145 29.185-16.598 40.107z"/></svg>