<svg version="1.1" id="Слой_1" xmlns="http://www.w3.org/2000/svg" xmlns:xlink="http://www.w3.org/1999/xlink" x="0" y="0" viewBox="0 0 880 402" xml:space="preserve"><style>.st1{fill:red}</style><circle cx="439.8" cy="244.3" r="127.8" fill="none" stroke="red" stroke-width="22.677" stroke-miterlimit="10"/><circle class="st1" cx="439.8" cy="263.5" r="18.5"/><path class="st1" d="M519.8 207.5l-73.9 64.1-12.2-17.1 84.5-49.1z"/><defs><path id="SVGID_1_" d="M249.7 135H619v128.5H249.7z"/></defs><clipPath id="SVGID_2_"><use xlink:href="#SVGID_1_" overflow="visible"/></clipPath><circle cx="440" cy="242.3" r="97" clip-path="url(#SVGID_2_)" fill="none" stroke="red" stroke-width="11.339" stroke-miterlimit="10"/><path class="st1" d="M433.7 148.3h12.8v19h-12.8z"/><path transform="rotate(27 478.413 166.993)" class="st1" d="M472 157.5h12.8v19H472z"/><path transform="rotate(53.999 508.417 192.65)" class="st1" d="M502 183.1h12.8v19H502z"/><path transform="rotate(81.002 523.47 229.088)" class="st1" d="M517.1 219.6h12.8v19h-12.8z"/><path transform="rotate(-27 401.687 166.952)" class="st1" d="M395.3 157.5h12.8v19h-12.8z"/><path transform="rotate(-53.999 371.692 192.557)" class="st1" d="M365.3 183.1h12.8v19h-12.8z"/><path transform="rotate(-81.002 356.549 228.994)" class="st1" d="M350.2 219.5H363v19h-12.8z"/><path class="st1" d="M2 236.8s96.7-21 159.7-54.9 128.1-29.4 148.5-9.4c-2.2 3.8-10 19.9-15.1 38.6-35.3-1.3-67.9 8-111.2 24.2-46 21.9-116.1 35-181.9 1.5z"/><path class="st1" d="M53 268s86.5 10.3 130.3-15.3C240 224.9 296 220.6 292 222.1c-1.4 19.8-2.2 28.5.2 53.2C244.3 277.7 155 338 53 268z"/><path class="st1" d="M128.8 307.9s39.9 8.3 91.4-3.5c11.4-2.6 61.9-19 74.1-17.4 17.8 38.3 37.4 60 37.4 60s-29.7-28.1-99.5-19.3c-26.6 3.4-74.8-2.3-103.4-19.8zm748.9-71.1s-96.7-21-159.7-54.9-128.1-29.4-148.5-9.4c2.2 3.8 10 19.9 15.1 38.6 35.3-1.3 67.9 8 111.2 24.2 46 21.9 116.1 35 181.9 1.5z"/><path class="st1" d="M826.7 268s-86.5 10.3-130.3-15.3c-56.8-27.9-112.7-32.1-108.7-30.6 1.4 19.8 2.2 28.5-.2 53.2 47.8 2.4 137.2 62.7 239.2-7.3z"/><path class="st1" d="M750.9 307.9s-39.9 8.3-91.4-3.5c-11.4-2.6-61.9-19-74.1-17.4-17.8 38.3-37.4 60-37.4 60s29.7-28.1 99.5-19.3c26.6 3.4 74.8-2.3 103.4-19.8z"/><defs><path id="SVGID_3_" d="M344.4 24H536v210.3H344.4z"/></defs><clipPath id="SVGID_4_"><use xlink:href="#SVGID_3_" overflow="visible"/></clipPath><circle cx="440.1" cy="259.4" r="172.4" clip-path="url(#SVGID_4_)" fill="none" stroke="#000" stroke-width="22.677" stroke-miterlimit="10"/><path d="M440.3 9L276.8 78l54.8 21.5C371.7 79.7 399.2 66 440.3 66c41 0 69.7 13 108.7 33.5L603.8 78 440.3 9z"/></svg>