<svg version="1.1" id="Слой_1" xmlns="http://www.w3.org/2000/svg" xmlns:xlink="http://www.w3.org/1999/xlink" x="0" y="0" viewBox="0 0 880 546" xml:space="preserve"><style>.st1{fill:red}</style><circle cx="439.8" cy="244.3" r="127.8" fill="none" stroke="red" stroke-width="22.677" stroke-miterlimit="10"/><circle class="st1" cx="439.8" cy="263.5" r="18.5"/><path class="st1" d="M519.8 207.5l-73.9 64.1-12.2-17.1 84.5-49.1z"/><defs><path id="SVGID_1_" d="M249.7 135H619v128.5H249.7z"/></defs><clipPath id="SVGID_2_"><use xlink:href="#SVGID_1_" overflow="visible"/></clipPath><circle cx="440" cy="242.3" r="97" clip-path="url(#SVGID_2_)" fill="none" stroke="red" stroke-width="11.339" stroke-miterlimit="10"/><path class="st1" d="M433.7 148.3h12.8v19h-12.8z"/><path transform="rotate(27 478.413 166.993)" class="st1" d="M472 157.5h12.8v19H472z"/><path transform="rotate(53.999 508.417 192.65)" class="st1" d="M502 183.1h12.8v19H502z"/><path transform="rotate(81.002 523.47 229.088)" class="st1" d="M517.1 219.6h12.8v19h-12.8z"/><path transform="rotate(-27 401.687 166.952)" class="st1" d="M395.3 157.5h12.8v19h-12.8z"/><path transform="rotate(-53.999 371.692 192.557)" class="st1" d="M365.3 183.1h12.8v19h-12.8z"/><path transform="rotate(-81.002 356.549 228.994)" class="st1" d="M350.2 219.5H363v19h-12.8z"/><path class="st1" d="M2 236.8s96.7-21 159.7-54.9 128.1-29.4 148.5-9.4c-2.2 3.8-10 19.9-15.1 38.6-35.3-1.3-67.9 8-111.2 24.2-46 21.9-116.1 35-181.9 1.5z"/><path class="st1" d="M53 268s86.5 10.3 130.3-15.3C240 224.9 296 220.6 292 222.1c-1.4 19.8-2.2 28.5.2 53.2C244.3 277.7 155 338 53 268z"/><path class="st1" d="M128.8 307.9s39.9 8.3 91.4-3.5c11.4-2.6 61.9-19 74.1-17.4 17.8 38.3 37.4 60 37.4 60s-29.7-28.1-99.5-19.3c-26.6 3.4-74.8-2.3-103.4-19.8zm748.9-71.1s-96.7-21-159.7-54.9-128.1-29.4-148.5-9.4c2.2 3.8 10 19.9 15.1 38.6 35.3-1.3 67.9 8 111.2 24.2 46 21.9 116.1 35 181.9 1.5z"/><path class="st1" d="M826.7 268s-86.5 10.3-130.3-15.3c-56.8-27.9-112.7-32.1-108.7-30.6 1.4 19.8 2.2 28.5-.2 53.2 47.8 2.4 137.2 62.7 239.2-7.3z"/><path class="st1" d="M750.9 307.9s-39.9 8.3-91.4-3.5c-11.4-2.6-61.9-19-74.1-17.4-17.8 38.3-37.4 60-37.4 60s29.7-28.1 99.5-19.3c26.6 3.4 74.8-2.3 103.4-19.8z"/><defs><path id="SVGID_3_" d="M344.4 24H536v210.3H344.4z"/></defs><clipPath id="SVGID_4_"><use xlink:href="#SVGID_3_" overflow="visible"/></clipPath><circle cx="440.1" cy="259.4" r="172.4" clip-path="url(#SVGID_4_)" fill="none" stroke="#000" stroke-width="22.677" stroke-miterlimit="10"/><path d="M440.3 9L276.8 78l54.8 21.5C371.7 79.7 399.2 66 440.3 66c41 0 69.7 13 108.7 33.5L603.8 78 440.3 9zM112 401.3h51.2v15.1h-17.3v90.3h-16.6v-90.3H112v-15.1zm63.3 90.3c.9.1 1.9.2 2.9.2h2.9c1.3 0 2.5-.2 3.7-.5 1.2-.3 2.2-.9 3-1.7.9-.8 1.5-2 2-3.5s.7-3.4.7-5.7l-24.1-79.2H183l18 61.8 15.1-61.7h16.6L210.9 479c-1.9 7.2-3.8 12.8-5.8 16.6-2 3.9-4 6.6-6.2 8.3-2.2 1.7-4.6 2.6-7.2 2.8s-5.4.3-8.5.3h-4.1c-1.2 0-2.5-.1-3.9-.3v-15.1zm89.2-90.3c8.3 0 14.5 2.2 18.6 6.6 4.1 4.4 6.1 10.9 6.1 19.4V441c0 8.5-2 15-6.1 19.4-4.1 4.4-10.3 6.6-18.6 6.6h-7.8v39.6h-16.6V401.3h24.4zm-7.8 15V452h7.8c2.6 0 4.6-.7 6-2.1 1.4-1.4 2.1-4 2.1-7.8v-15.8c0-3.8-.7-6.4-2.1-7.8-1.4-1.4-3.4-2.1-6-2.1h-7.8zm56.6 24.6h7.8c8.3 0 14.5 2.2 18.6 6.6 4.1 4.4 6.1 10.9 6.1 19.4v13.7c0 8.5-2 15-6.1 19.4-4.1 4.4-10.3 6.6-18.6 6.6h-24.4V401.3h43.8v15.1h-27.3v24.5zm7.9 50.7c2.6 0 4.6-.7 6-2.1 1.4-1.4 2.1-4 2.1-7.8v-15.8c0-3.8-.7-6.4-2.1-7.8-1.4-1.4-3.4-2.1-6-2.1h-7.8v35.7h7.8zm32.9-65c0-8.5 2.2-15.1 6.5-19.6 4.3-4.6 10.5-6.9 18.7-6.9s14.4 2.3 18.7 6.9c4.3 4.6 6.5 11.1 6.5 19.6v54.8c0 8.5-2.2 15.1-6.5 19.6-4.3 4.6-10.5 6.9-18.7 6.9s-14.4-2.3-18.7-6.9c-4.3-4.6-6.5-11.1-6.5-19.6v-54.8zm16.6 55.8c0 3.8.8 6.5 2.3 8.1 1.6 1.6 3.6 2.3 6.2 2.3s4.7-.8 6.2-2.3c1.6-1.6 2.3-4.2 2.3-8.1v-56.9c0-3.8-.8-6.5-2.3-8.1-1.6-1.6-3.6-2.3-6.2-2.3s-4.7.8-6.2 2.3c-1.6 1.6-2.3 4.2-2.3 8.1v56.9zm43.5-36h30.1v15.1h-30.1v-15.1zm35.4 45.2c.9.1 1.9.2 2.9.2h2.9c2.6 0 4.8-.7 6.7-2 1.9-1.3 2.8-4 2.8-8.1v-80.4h52.4v90.3h8.4v27.1h-16.9v-12h-42.3v12h-16.9v-27.1zm31.8-11.1c0 4.4-.5 8.1-1.4 11.1h20.6v-75.3h-19.3v64.2zm75.4-79.2c8.3 0 14.5 2.2 18.6 6.6 4.1 4.4 6.1 10.9 6.1 19.4V441c0 8.5-2 15-6.1 19.4-4.1 4.4-10.3 6.6-18.6 6.6H549v39.6h-16.6V401.3h24.4zm-7.8 15V452h7.8c2.6 0 4.6-.7 6-2.1 1.4-1.4 2.1-4 2.1-7.8v-15.8c0-3.8-.7-6.4-2.1-7.8-1.4-1.4-3.4-2.1-6-2.1H549zm93.5 90.4h-16.7l-2.9-19.1h-20.3l-2.9 19.1h-15.2l16.9-105.4h24.2l16.9 105.4zm-37.8-33.5h16l-8-53.3-8 53.3zm62.3 33.5h-17V401.3h14.8v63.1l17-63.1h20.8v105.4h-14.9v-76.3L667 506.7zM694.7 383v12.3h-36.4V383h36.4zm44.9 18.3c8.6 0 14.9 2 18.7 6 3.9 4 5.8 10.1 5.8 18.2v3.8c0 5.4-.9 9.9-2.6 13.4-1.7 3.5-4.4 6.1-8.1 7.8 4.5 1.7 7.7 4.5 9.6 8.4 1.9 3.9 2.8 8.6 2.8 14.2v8.6c0 8.1-2.1 14.3-6.3 18.6-4.2 4.3-10.5 6.4-18.8 6.4h-26V401.3h24.9zm-8.5 15v27.9h6.5c3.1 0 5.5-.8 7.3-2.4 1.8-1.6 2.6-4.5 2.6-8.7v-5.9c0-3.8-.7-6.6-2-8.3-1.4-1.7-3.5-2.6-6.4-2.6h-8zm0 42.9v32.4h9.5c2.8 0 4.9-.8 6.4-2.3 1.5-1.5 2.2-4.2 2.2-8.1V472c0-4.9-.8-8.3-2.5-10.1s-4.4-2.7-8.2-2.7h-7.4z"/></svg>