<svg width="30" height="31" fill="none" xmlns="http://www.w3.org/2000/svg"><path d="M27.539 24.297V6.75A3.406 3.406 0 0030 3.444C30 1.536 28.421 0 26.517 0c-1.904 0-3.483 1.536-3.483 3.444a3.44 3.44 0 002.647 3.352v7.447H15.93V6.796c1.486-.42 2.554-1.722 2.554-3.305 0-1.908-1.579-3.444-3.483-3.444-1.904 0-3.483 1.536-3.483 3.444a3.394 3.394 0 002.554 3.305v7.447H5.015c-.232 0-.696-.046-.696-.465V6.796a3.44 3.44 0 002.647-3.352C6.966 1.536 5.387 0 3.483 0 1.579 0 0 1.536 0 3.444 0 4.98 1.022 6.284 2.461 6.75v7.029c0 1.35 1.068 2.327 2.554 2.327h9.056v8.146c-1.486.419-2.554 1.722-2.554 3.305C11.517 29.464 13.096 31 15 31c1.904 0 3.483-1.536 3.483-3.444a3.394 3.394 0 00-2.554-3.305v-8.146h9.752v8.1a3.44 3.44 0 00-2.647 3.35c0 1.909 1.579 3.445 3.483 3.445C28.421 31 30 29.464 30 27.556a3.392 3.392 0 00-2.461-3.259zM13.375 3.444c0-.884.743-1.582 1.625-1.582s1.625.698 1.625 1.582c0 .885-.743 1.583-1.625 1.583s-1.625-.698-1.625-1.583zm-11.517 0c0-.884.743-1.582 1.625-1.582s1.625.698 1.625 1.582c0 .885-.743 1.583-1.625 1.583s-1.625-.698-1.625-1.583zm14.767 24.112c0 .884-.743 1.582-1.625 1.582s-1.625-.698-1.625-1.582c0-.885.743-1.583 1.625-1.583s1.625.698 1.625 1.583zm8.267-24.112c0-.884.743-1.582 1.625-1.582s1.625.698 1.625 1.582c0 .885-.743 1.583-1.625 1.583s-1.625-.698-1.625-1.583zm1.625 25.694c-.882 0-1.625-.698-1.625-1.582 0-.885.743-1.583 1.625-1.583s1.625.698 1.625 1.583c0 .884-.743 1.582-1.625 1.582z" fill="red"/></svg>